<svg xmlns="http://www.w3.org/2000/svg" viewBox="0 0 2743 1035"><defs><style>.cls-1,.cls-10,.cls-12,.cls-14,.cls-16,.cls-7,.cls-8,.cls-9{font-size:120px;stroke:#000;stroke-miterlimit:10;}.cls-1,.cls-12{fill:#731cff;}.cls-1,.cls-10,.cls-7,.cls-8{font-family:LondrinaSolid-Black, Londrina Solid Black;font-weight:800;}.cls-1,.cls-11,.cls-7,.cls-8{letter-spacing:0.01em;}.cls-2{letter-spacing:-0.01em;}.cls-3{letter-spacing:0em;}.cls-4{letter-spacing:0em;}.cls-5{letter-spacing:0em;}.cls-10,.cls-12,.cls-14,.cls-6,.cls-9{letter-spacing:0.01em;}.cls-7{fill:#863dff;}.cls-10,.cls-14,.cls-16,.cls-8,.cls-9{fill:#c10de8;}.cls-9{font-family:FranklinGothicCondensed, Franklin Gothic;}.cls-12,.cls-14,.cls-16{font-family:FranklinGothic-DemiItalic, Franklin Gothic Demi;font-weight:300;font-style:italic;}.cls-13{letter-spacing:0em;}.cls-15,.cls-16{letter-spacing:-0.01em;}</style></defs><title>Artboard 9</title><g id="wisdom"><text class="cls-1" transform="translate(1651.52 254.48)">the<tspan class="cls-2" x="157.8" y="0"> </tspan><tspan class="cls-3" x="181.2" y="0">w</tspan><tspan x="262.68" y="0">alls o</tspan><tspan class="cls-4" x="509.64" y="0">f</tspan><tspan class="cls-5" x="555" y="0"> </tspan><tspan class="cls-6" x="578.4" y="0">wisdom</tspan></text><text class="cls-7" transform="translate(1651.52 428.48)">the<tspan class="cls-2" x="157.8" y="0"> </tspan><tspan class="cls-3" x="181.2" y="0">w</tspan><tspan x="262.68" y="0">alls o</tspan><tspan class="cls-4" x="509.64" y="0">f</tspan><tspan class="cls-5" x="555" y="0"> </tspan><tspan class="cls-6" x="578.4" y="0">wisdom</tspan></text><text class="cls-8" transform="translate(1651.52 570.48)">the<tspan class="cls-2" x="157.8" y="0"> </tspan><tspan class="cls-3" x="181.2" y="0">w</tspan><tspan x="262.68" y="0">alls o</tspan><tspan class="cls-4" x="509.64" y="0">f</tspan><tspan class="cls-5" x="555" y="0"> </tspan><tspan class="cls-6" x="578.4" y="0">wisdom</tspan></text><text class="cls-9" transform="translate(1651.52 957.48)">the walls of wisdom</text><text class="cls-10" transform="translate(1651.52 757.48)">The <tspan class="cls-4" x="189.96" y="0">W</tspan><tspan x="245.64" y="0">alls O</tspan><tspan class="cls-4" x="496.79" y="0">f</tspan><tspan class="cls-11" x="542.16" y="0" xml:space="preserve"> Wisdom</tspan></text><text class="cls-12" transform="translate(358.52 254.48)">the <tspan class="cls-13" x="207.67" y="0">w</tspan><tspan x="294.43" y="0">all of wisdom</tspan></text><text class="cls-14" transform="translate(358.52 412.48)">the <tspan class="cls-13" x="207.67" y="0">w</tspan><tspan x="294.43" y="0">alls of wisdom</tspan></text><text class="cls-14" transform="translate(358.52 607.48)">the <tspan class="cls-13" x="207.67" y="0">w</tspan><tspan x="294.43" y="0">all of wisdom</tspan></text><text class="cls-14" transform="translate(358.52 972.48)">The <tspan class="cls-15" x="223.26" y="0">W</tspan><tspan x="328.29" y="0">all of Wisdom</tspan></text><text class="cls-16" transform="translate(358.52 794.48)">W<tspan class="cls-6" x="105.03" y="0">all of Wisdom</tspan></text></g></svg>