<svg xmlns="http://www.w3.org/2000/svg" viewBox="0 0 1920 1080"><defs><style>.cls-1,.cls-2{fill:#f15a24;stroke:#000;stroke-miterlimit:10;}.cls-2{font-size:120px;font-family:LondrinaSolid-Black, Londrina Solid Black;font-weight:800;letter-spacing:0.07em;}.cls-3{letter-spacing:0.05em;}.cls-4{letter-spacing:0.05em;}.cls-5{letter-spacing:0.05em;}</style></defs><title>Artboard 5</title><g id="Layer_6" data-name="Layer 6"><path class="cls-1" d="M150.24,173.56c4.16-.31,7.84-.69,11-1.09l1.68-.21a8.29,8.29,0,0,1,1.74-.15c.6,0,1.1,0,1.5,0l2.76-.16q.48,4.77.48,5.49c0,.4-.08,1.65-.24,3.74,0,.53-.07.79-.12,1.32,0,1.06-.07,1.59-.12,2.65a25,25,0,0,0,.24,2.75c-7.48.45-11.23.64-18.72.92q0,19.08-.12,23.41c1.2,1.47,3.36,2.51,6.48,3.09a40.51,40.51,0,0,0,9.72.57l2.52-.27v1.08c0,.19.08.29.12.48V217a63.36,63.36,0,0,1,.72,8.95,21.78,21.78,0,0,1-1.08,7q-3.12.42-6.36.6a58.83,58.83,0,0,1-19.14-1.8c-5.48-1.56-9.75-4.77-10.86-8.58s-1.2-8.6-1.44-12.88-.36-9.17-.36-14.69v-6a23.32,23.32,0,0,1-2.82.09c-.84,0-1.58-.05-2.22-.05H122c.15-6.33.22-9.5.36-15.84,2.16.08,5,.11,8.52.06.05-9.17.08-13.75.12-22.92,1.76-.18,3.28-.29,4.56-.31s2.8,0,4.56.14l.84.1c1.92.11,3.4.14,4.44.11a30.88,30.88,0,0,0,4.68-.52v21.84C150.17,172.85,150.2,173.08,150.24,173.56Z"/><path class="cls-1" d="M198.9,174.47s0-.06.06-.07a28.74,28.74,0,0,1,6.66-3.71,28.38,28.38,0,0,1,7.5-1.92c5.28-.57,9.37.23,12.24,2.45q3.36,2.59,3.36,19.39c0,3.28-.07,8.31-.24,15-.15,5.77-.24,9.91-.24,12.39q0,4.08.24,9.09a69.56,69.56,0,0,1-13,2.23l-5.64.61q-.24-3.59-.24-13.9v-6c0-3.4-.07-5.1-.12-8.51a19.87,19.87,0,0,1-.12-2.38,21.82,21.82,0,0,0-.66-5.45,6.53,6.53,0,0,0-1-2.3,6.61,6.61,0,0,0-1.26-1.08,4.75,4.75,0,0,0-2.76-.32,6.13,6.13,0,0,0-3.84,1.93c-1.12,1.15-1.68,3-1.8,5.33-.06,1.19-.12,3.05-.12,5.53,0,2,.09,4.92.24,8.74.17,4,.24,7,.24,9,0,3.59.32,8.64-.48,9.64-.67.84-3.9,1.25-5.22,1.49a25.7,25.7,0,0,1-4.38.43c-.69,0-1.88,0-3.48.16-1.84.15-3.64.36-5.4.65v-9.6c-.05-5.57-.07-8.35-.12-13.91-.12-11.56-.11-23.12-.12-34.68,0-10.16,0-20.33.24-30.49a47.82,47.82,0,0,0,6,0,31.46,31.46,0,0,0,4-.56l2-.41c2.64-.47,4-.72,4.2-.73,1.92-.18,2.94.1,3,.8.2,2.18.24,6.62.24,13.18-.05,4.37-.07,6.56-.12,10.93v7.08Q199,174.52,198.9,174.47Z"/><path class="cls-1" d="M259.74,201.93a10.15,10.15,0,0,0,1.62,3.66,6.25,6.25,0,0,0,2.52,2.38,5.5,5.5,0,0,0,3.24.46,5.66,5.66,0,0,0,4.08-3.33q1.56-2.94,1.32-8.19a37.22,37.22,0,0,0,7.44-1c4.51-.5,6.77-.75,11.28-1.29a80.83,80.83,0,0,1-.78,11.06,21.73,21.73,0,0,1-2.94,8.9,15.57,15.57,0,0,1-6.9,5.76,41.63,41.63,0,0,1-10.5,3q-2.28.36-6.36.74c-1.27.12-3.3.53-5.64.72a16,16,0,0,1-7.44-1.56q-5.76-3.75-8.52-11.79a54.71,54.71,0,0,1-2.76-17.87c0-6.88.8-13.67,2.88-19.34,1.37-3.71,4.56-7,8.88-9.63a39,39,0,0,1,14.4-5.13,40.66,40.66,0,0,1,8.4-.35c6,.34,10.66,2.37,13.5,6.49s4.26,9.37,4.26,15.77c0,1,.44,4.47-.24,5.44-.45.65-5,1.64-10.44,2.89s-10.52,2.24-15.24,3l-6.48,1v2.52A48.22,48.22,0,0,0,259.74,201.93Zm8.1-29.73c-2.8.44-4.8,1.38-6,2.84a10.47,10.47,0,0,0-2.16,5.72,4.69,4.69,0,0,0-.12,1.1.65.65,0,0,0,.72.73,24.74,24.74,0,0,0,3.6-.54l5.28-.81,3.6-.45,1.56-.25c.24.05.4,0,.48-.07a.78.78,0,0,0,.12-.5v-.48a9.45,9.45,0,0,0-.9-4.3,4.64,4.64,0,0,0-2.46-2.37l-.48,0A5.84,5.84,0,0,0,267.84,172.2Z"/><path class="cls-1" d="M351.6,156.7q4,24.17,4.44,24.67c3-12.73,5.62-25.3,7.8-38.2.72-.07,1.76-.24,3.12-.52l6.36-1.44c2-.58,6.44-1.5,7.2-.91s1.64,8.38,2.76,16.46q1.92,13.74,3.24,18.15c.64-2.29,1.32-5.32,2-9.07s1.2-6.22,1.44-7.39q1.2-6,2.46-11.92c.84-3.94,1.62-7,2.34-9.26,1.28-.27,3.28-.79,6-1.52s5.2-1.36,7-1.74q1.44-.31,6.12-1-2.76,8.28-4.92,17.26c-1.44,6-3.11,13.7-5,23.05-2.22,10.7-4,18.61-5.28,23.69a77.22,77.22,0,0,1-11.16,3l-6,1.27c-1.36.2-3.8.68-7.32,1.41q-.72-3.21-1.68-10c-.53-3.2-.79-4.8-1.32-8q-.6,2.88-1.32,8.31c-.08.74-.28,2.2-.6,4.39s-.46,5.33-1.08,6c-1,1.08-6.68,2-12.12,3.09q-7.8,1.58-13.8,2.64c-3.57-20-7.52-39.82-13-59.39a36.62,36.62,0,0,0,7-.75l3.72-.85c.8-.23,2-.51,3.6-.83a34.23,34.23,0,0,1,4.8-.59l1.56-.32C350.4,148.63,351,152,351.6,156.7Z"/><path class="cls-1" d="M472.74,122.21a17.5,17.5,0,0,1,.18,2.6c0,2.06-.12,5.23-.12,9.39q0,8.4.12,12.57V154c.05,2.87.07,4.3.12,7.17q0,7.1-.36,14.6v1.2a7.85,7.85,0,0,1-.48,3,4.25,4.25,0,0,1-2.52,1.93l-15.24,3.29q-2.76-.24-2.76-2.64v-.84a36.69,36.69,0,0,1-6.6,4.49,26.85,26.85,0,0,1-7,2.65A11.16,11.16,0,0,1,427.38,186a25.69,25.69,0,0,1-6.54-11.36,49.41,49.41,0,0,1-2.16-14.35,39.2,39.2,0,0,1,2.88-15,33.93,33.93,0,0,1,7.92-11.86,23.79,23.79,0,0,1,11.16-6.26,36.72,36.72,0,0,1,7-.92c2.16-.07,3.52.12,4.08.56a6.17,6.17,0,0,0-.24-1.51,1.8,1.8,0,0,1,.12-1.47,3.86,3.86,0,0,1,1.68-.6c1.44-.31,3.34-.63,5.7-.94s3.86-.49,4.5-.55l7.56-1.27,1.56-.33A17.93,17.93,0,0,0,472.74,122.21ZM439.44,167a6.85,6.85,0,0,0,10.32-.15,9,9,0,0,0,1.5-4.16,65,65,0,0,0,.3-7.27v-3.12q0-5.15-.18-7t-1.08-2.28a5.22,5.22,0,0,0-3.18,0,11.53,11.53,0,0,0-6.24,3.45,13.41,13.41,0,0,0-3.12,5.78,26.16,26.16,0,0,0-.72,6.4Q437,164,439.44,167Z"/><path class="cls-1" d="M505.92,107.4v3.48c-.05,4.71-.07,7.07-.12,11.78q-.24,17.58-.24,26.21,0,16.2.48,23.9a4.64,4.64,0,0,1-2.46,1.65,38.37,38.37,0,0,1-5.1,1.37c-2.48.52-4.22.82-5.16,1a25.48,25.48,0,0,0-7.92,2.39q.84-11.69.84-21.53c0-4.8-.17-12-.48-21.5-.33-10.32-.48-18.14-.48-23.42q0-12,1.08-22.91c7.92-1.54,11.88-2.3,19.8-3.79C506.06,94.55,506,98.83,505.92,107.4Z"/><path class="cls-1" d="M538.68,100.8v3.48c0,4.71-.07,7.07-.12,11.78q-.24,17.56-.24,26.21,0,16.2.48,23.9a4.68,4.68,0,0,1-2.46,1.63,38.39,38.39,0,0,1-5.1,1.3c-2.48.49-4.22.78-5.16.91a25,25,0,0,0-7.92,2.32q.84-11.7.84-21.54c0-4.79-.17-12-.48-21.5-.33-10.32-.48-18.14-.48-23.42q0-12,1.08-22.9c7.92-1.46,11.88-2.18,19.8-3.58C538.82,88,538.78,92.23,538.68,100.8Z"/><path class="cls-1" d="M594.36,117a65.42,65.42,0,0,1-12.24.73,7.49,7.49,0,0,0,.12-1.58,5.06,5.06,0,0,0-1.56-3.94,4.53,4.53,0,0,0-4.56-.64,7.06,7.06,0,0,0-2.94,2.49,5.55,5.55,0,0,0-1.14,3.27,5.68,5.68,0,0,0,1.08,3.41,5.16,5.16,0,0,0,3.12,2l-.12,0a80.77,80.77,0,0,1,14.52.64c3.68.59,6.73,2,8.4,4.15a16.48,16.48,0,0,1,3.24,10,27.41,27.41,0,0,1-1.92,9.67,21.18,21.18,0,0,1-8.94,10,42,42,0,0,1-14.22,5.06c-8.55,1.58-15.7,1.37-20.94-1.5s-7.86-7.83-7.86-15a86.26,86.26,0,0,1,9.84-2.45c4.61-.75,6.91-1.13,11.52-1.86a5.21,5.21,0,0,0,2.28,4.34,6.29,6.29,0,0,0,4.8,1,5.55,5.55,0,0,0,3.36-2.08,7,7,0,0,0,1.32-4.25c.06-2-.4-3.47-1.92-4.05a22.4,22.4,0,0,0-6.84-1l-1.8,0a39.4,39.4,0,0,1-7.44-.82,18.07,18.07,0,0,1-10.26-5.35,13.38,13.38,0,0,1-3.66-9.21,19.59,19.59,0,0,1,3.72-11,24.19,24.19,0,0,1,10.08-8.47A53.94,53.94,0,0,1,576,97.11c5.84-1,11.57-1.71,15.84-1a12.18,12.18,0,0,1,8.46,6.37,24.84,24.84,0,0,1,2.7,12.11l-1.92.9A47.61,47.61,0,0,1,594.36,117Z"/><path class="cls-1" d="M670.92,84.53c.45-.08,1.48-.26,3-.41a12,12,0,0,1,2-.07,26.16,26.16,0,0,1,8,.91A17,17,0,0,1,690,88.13a13.63,13.63,0,0,1,4.56,8.3,75.17,75.17,0,0,1,1.08,13.6v4q-.36,10.23-1.2,17.25c-.56,4.68-1.64,7.89-2.88,9.57a15.1,15.1,0,0,1-6.9,5.23,40.79,40.79,0,0,1-10.5,2.26c-1.52.15-3.65.28-6.36.39q-3.84.15-5.88.37a20.24,20.24,0,0,1-11.16-4.15,15.94,15.94,0,0,1-5.16-8.43,46.34,46.34,0,0,1-1.44-12.13c0-5.46-.07-8.2-.12-13.66a35.38,35.38,0,0,1,.78-9.46c.76-4.17,1.54-6.59,2.34-7.24q1.32-3.52,6.9-6c3.72-1.63,8.34-3.16,12.54-3.16A20.77,20.77,0,0,0,670.92,84.53Zm-7.08,28.14c-.08,1.41-.12,2.48-.12,3.2-.05,1-.07,1.44-.12,2.41,0,2-.22,4.34-.24,6.63a5.05,5.05,0,0,0,2,4.1,5.86,5.86,0,0,0,4.32,1.24,12.64,12.64,0,0,0,4.8-1.54c.48-.29,1.08-1.67,1.8-4.13,0-.25.07-.37.12-.61a84.46,84.46,0,0,0,.72-8.83,25.81,25.81,0,0,0-.48-5.11,8.69,8.69,0,0,0-2.34-4.71A5.34,5.34,0,0,0,670,104a14.27,14.27,0,0,0-1.92.43c-2,.84-3.16,1.85-3.48,3-.19.79-.29,1.18-.48,2S663.92,111.27,663.84,112.67Z"/><path class="cls-1" d="M727.08,142.92a38.46,38.46,0,0,0-4,.38l-.6.15c-1.76.23-3.28.37-4.56.43s-2.68,0-4.44,0c-.4-2.38-.6-7.92-.6-16.65.05-4,.07-6,.12-10v-8.4c.05-2.16.07-3.24.12-5.41v-1.92c-4,.21-6.84.42-8.52.6-.15-6.33-.22-9.49-.36-15.82l4-.23q1-.06,2.1-.18a20.87,20.87,0,0,1,2.58-.08A27.66,27.66,0,0,1,716,72.09a19.81,19.81,0,0,1,10.5-10c4.58-1.83,10.8-2.74,18.24-2.82,2.24,0,4.4,0,6.48.2a21.18,21.18,0,0,1,1.08,7,64.36,64.36,0,0,1-.72,9c0,.57-.07.86-.12,1.44a20.66,20.66,0,0,0-2.76-.11,72,72,0,0,0-10.8,1.1l-1.8.28h.12a4.31,4.31,0,0,1-1.32.27H735q-2.4.54-2.4,4.38a25.2,25.2,0,0,0,.24,2.63c7.44-.19,11.16-.25,18.6-.26a25.49,25.49,0,0,0-.24,3.6v2.52a77.11,77.11,0,0,1-.48,8.52c-.05.24-.07.36-.12.6v1.08c-2.45-.14-3.67-.2-6.12-.32l-1-.11q-6-.39-11-.38v41.88l-.72.62A38.52,38.52,0,0,0,727.08,142.92Z"/><path class="cls-1" d="M150.24,381.43c4.16,1.18,7.84,2.07,11,2.73l1.68.34a10,10,0,0,1,1.74.42q.9.3,1.5.45c1.11.3,1.66.44,2.76.72q.48,4.92.48,5.64t-.24,3.66c0,.51-.07.77-.12,1.29,0,1-.07,1.56-.12,2.61a27,27,0,0,0,.24,2.82c-7.48-1.89-11.23-3-18.72-5.36q0,19.08-.12,23.36a16.52,16.52,0,0,0,6.48,5.36,45.28,45.28,0,0,0,9.72,3.8l2.52.53v1.08c0,.2.08.31.12.51v-.12a68.19,68.19,0,0,1,.72,9.18,18.85,18.85,0,0,1-1.08,6.69q-3.12-.56-6.36-1.45a66.52,66.52,0,0,1-19.14-8.55c-5.48-3.62-9.7-8.31-10.86-12.83-1-4.07-1.2-9.09-1.44-13.46s-.36-9.32-.36-14.84v-6a27.89,27.89,0,0,1-2.82-1.08c-.84-.39-1.58-.71-2.22-1-1.44-.6-2.16-.91-3.6-1.53.15-6.28.22-9.41.36-15.69,2.16,1,5,2.25,8.52,3.65.05-9.15.08-13.72.12-22.87,1.76.54,3.28,1,4.56,1.52s2.8,1.13,4.56,1.93l.84.42q2.88,1.26,4.44,1.78a29.72,29.72,0,0,0,4.68,1.19v21.84C150.17,380.69,150.2,380.94,150.24,381.43Z"/><path class="cls-1" d="M198.9,397s0-.06.06,0a22.84,22.84,0,0,1,6.66-2.1,27,27,0,0,1,7.5-.22c5.28.59,9.37,2.21,12.24,5q3.36,3.24,3.36,20c0,3.28-.06,8.28-.24,15-.15,5.74-.24,9.87-.24,12.34q0,4.08.24,9.14a59.51,59.51,0,0,1-13-.39c-2.25-.24-3.38-.36-5.64-.64-.16-2.42-.24-7.06-.24-13.95v-6c0-3.41-.07-5.12-.12-8.53a20.76,20.76,0,0,1-.12-2.41,23.8,23.8,0,0,0-.66-5.61,8.53,8.53,0,0,0-1-2.52,9.68,9.68,0,0,0-1.26-1.36,5.46,5.46,0,0,0-2.76-1,4.91,4.91,0,0,0-3.84,1c-1.12.87-1.68,2.54-1.8,4.88-.06,1.17-.12,3-.12,5.5,0,2,.09,4.94.24,8.8.17,4,.24,7,.24,9,0,3.6.18,8.87-.48,9.52s-3.9.27-5.22.16a25.3,25.3,0,0,1-4.38-.73c-.7-.19-1.88-.47-3.48-.79q-2.76-.56-5.4-.89v-9.6c-.05-5.58-.07-8.36-.12-13.94-.12-11.57-.11-23.14-.12-34.71,0-10.14,0-20.29.24-30.43a47.41,47.41,0,0,0,6,1.72,28.33,28.33,0,0,0,4,.52l2,.13c2.64.23,4,.33,4.2.36,1.92.31,2.94.84,3,1.56.2,2.22.24,6.67.24,13.23-.05,4.36-.07,6.54-.12,10.91v7.08Q199,397.1,198.9,397Z"/><path class="cls-1" d="M259.74,436.05a11.83,11.83,0,0,0,1.62,3.88,7.57,7.57,0,0,0,2.52,2.71,5.92,5.92,0,0,0,3.24.88,4.8,4.8,0,0,0,4.08-2.83q1.56-2.76,1.32-8a35.23,35.23,0,0,0,7.44-.12c4.51,0,6.77,0,11.28-.15a79.25,79.25,0,0,1-.78,11,19.81,19.81,0,0,1-2.94,8.61,13.39,13.39,0,0,1-6.9,5.06,36.65,36.65,0,0,1-10.5,1.75c-1.52,0-3.65,0-6.36-.07-1.27-.05-3.32.09-5.64,0a17.33,17.33,0,0,1-7.44-2.65c-3.84-3.08-6.68-7.48-8.52-13.13a59,59,0,0,1-2.76-18.34c0-6.88.79-13.54,2.88-18.86,1.36-3.45,4.56-6.26,8.88-8.22a36.68,36.68,0,0,1,14.4-3.12,43.51,43.51,0,0,1,8.4.68c6,1,10.66,3.53,13.5,7.93s4.26,9.78,4.26,16.18c0,1,.42,4.56-.24,5.42-.43.56-5,1.17-10.44,1.85s-10.52,1.06-15.24,1.18c-2.59.06-3.89.09-6.48.11v2.52A49.89,49.89,0,0,0,259.74,436.05Zm8.1-28.67c-2.8.08-4.8.76-6,2.06a9.16,9.16,0,0,0-2.16,5.43,4.46,4.46,0,0,0-.12,1.08.76.76,0,0,0,.72.83,22.38,22.38,0,0,0,3.6-.06c2.11,0,3.17-.07,5.28-.14h3.6l1.56-.07c.24.07.4.06.48,0a.71.71,0,0,0,.12-.48v-.48a10.12,10.12,0,0,0-.9-4.41,5.53,5.53,0,0,0-2.46-2.66l-.48-.1A6.39,6.39,0,0,0,267.84,407.38Z"/><path class="cls-1" d="M351.6,398q4,24.3,4.44,24.8c3-12.66,5.62-25.16,7.8-38a30.33,30.33,0,0,0,3.12-.45l6.36-1.32c2-.54,6.43-1.4,7.2-.79s1.64,8.4,2.76,16.49q1.92,13.77,3.24,18.19,1-3.42,2-9t1.44-7.37q1.2-6,2.46-11.9t2.34-9.24c1.28-.26,3.28-.76,6-1.48s5.2-1.33,7-1.71q1.44-.3,6.12-.94-2.76,8.28-4.92,17.25c-1.44,6-3.11,13.68-5,23-2.22,10.7-4,18.6-5.28,23.67a73.88,73.88,0,0,1-11.16,2.88l-6,1.2c-1.36.18-3.8.63-7.32,1.3q-.72-3.22-1.68-10c-.53-3.21-.79-4.82-1.32-8q-.6,2.88-1.32,8.29c-.08.73-.28,2.19-.6,4.37s-.47,5.34-1.08,6c-.94,1.06-6.68,1.84-12.12,2.79q-7.8,1.37-13.8,2.18c-3.58-20.17-7.54-40.21-13-60a35.14,35.14,0,0,0,7-.41l3.72-.69q1.2-.3,3.6-.69a36.32,36.32,0,0,1,4.8-.42l1.56-.26Q350.64,391,351.6,398Z"/><path class="cls-1" d="M472.74,364.52a17.5,17.5,0,0,1,.18,2.6c0,2.06-.12,5.23-.12,9.38q0,8.4.12,12.58v7.2c.05,2.87.07,4.3.12,7.17q0,7.08-.36,14.6v1.2a7.89,7.89,0,0,1-.48,3,4.23,4.23,0,0,1-2.52,1.91c-6.1,1.28-9.14,1.93-15.24,3.25-1.84-.17-2.76-1.05-2.76-2.65V424a36.18,36.18,0,0,1-6.6,4.49,27.26,27.26,0,0,1-7,2.66,11.16,11.16,0,0,1-10.74-2.83,25.72,25.72,0,0,1-6.54-11.37,49.36,49.36,0,0,1-2.16-14.35,39.11,39.11,0,0,1,2.88-15,33.93,33.93,0,0,1,7.92-11.86,23.88,23.88,0,0,1,11.16-6.26,35.88,35.88,0,0,1,7-.91c2.16-.07,3.52.12,4.08.55a6,6,0,0,0-.24-1.5,1.79,1.79,0,0,1,.12-1.47,3.73,3.73,0,0,1,1.68-.6q2.16-.46,5.7-.93t4.5-.54l7.56-1.24,1.56-.33A18.05,18.05,0,0,0,472.74,364.52Zm-33.3,44.76a6.86,6.86,0,0,0,10.32-.14,9,9,0,0,0,1.5-4.17,65,65,0,0,0,.3-7.26v-3.12q0-5.16-.18-7c-.12-1.21-.48-2-1.08-2.29a5.22,5.22,0,0,0-3.18,0,11.54,11.54,0,0,0-6.24,3.46,13.35,13.35,0,0,0-3.12,5.78A26,26,0,0,0,437,401Q437,406.26,439.44,409.28Z"/><path class="cls-1" d="M505.92,350.11v3.48c-.05,4.71-.07,7.07-.12,11.78q-.24,17.58-.24,26.21,0,16.2.48,23.91a4.6,4.6,0,0,1-2.46,1.6,37.53,37.53,0,0,1-5.1,1.27c-2.48.48-4.22.77-5.16.89a25,25,0,0,0-7.92,2.3q.84-11.69.84-21.53c0-4.8-.17-12-.48-21.5-.33-10.32-.48-18.15-.48-23.43q0-12,1.08-22.89c7.92-1.46,11.88-2.16,19.8-3.49C506.06,337.27,506,341.55,505.92,350.11Z"/><path class="cls-1" d="M538.68,344.56V348c0,4.71-.07,7.07-.12,11.78q-.24,17.56-.24,26.2,0,16.2.48,23.92a4.4,4.4,0,0,1-2.46,1.52,37,37,0,0,1-5.1,1.09c-2.48.4-4.21.63-5.16.72a24.36,24.36,0,0,0-7.92,2.07q.84-11.67.84-21.51c0-4.79-.17-12-.48-21.51-.33-10.33-.48-18.16-.48-23.44q0-12,1.08-22.87c7.92-1.23,11.88-1.8,19.8-2.84C538.82,331.72,538.78,336,538.68,344.56Z"/><path class="cls-1" d="M594.36,364.93a70.09,70.09,0,0,1-12.24-.49,7.26,7.26,0,0,0,.12-1.57,5.48,5.48,0,0,0-1.56-4.07,4.71,4.71,0,0,0-4.56-1.05,6.36,6.36,0,0,0-2.94,2.26,5.12,5.12,0,0,0-1.14,3.17,6.06,6.06,0,0,0,1.08,3.5,5.74,5.74,0,0,0,3.12,2.22h-.12a75.33,75.33,0,0,1,14.52,2c3.68,1,6.72,2.71,8.4,5.06a18.23,18.23,0,0,1,3.24,10.43,25.57,25.57,0,0,1-1.92,9.43,18.24,18.24,0,0,1-8.94,9,40.21,40.21,0,0,1-14.22,3.72c-8.53.85-15.7.15-20.94-3s-7.86-8.29-7.86-15.41a74,74,0,0,1,9.84-1.87c4.61-.46,6.91-.68,11.52-1.05a5.69,5.69,0,0,0,2.28,4.51,6.67,6.67,0,0,0,4.8,1.41,5,5,0,0,0,3.36-1.79,6.41,6.41,0,0,0,1.32-4.13c.06-1.94-.4-3.51-1.92-4.22a23.22,23.22,0,0,0-6.84-1.6l-1.8-.18a43.66,43.66,0,0,1-7.44-1.37,19.8,19.8,0,0,1-10.26-6,14.1,14.1,0,0,1-3.66-9.41,18.59,18.59,0,0,1,3.72-10.81,21.85,21.85,0,0,1,10.08-7.83,48.62,48.62,0,0,1,12.6-2.49c5.84-.53,11.59-.65,15.84.48a14,14,0,0,1,8.46,7.3,26.76,26.76,0,0,1,2.7,12.43l-1.92.67A46.86,46.86,0,0,1,594.36,364.93Z"/><path class="cls-1" d="M670.92,345.37a28.7,28.7,0,0,1,3,.31,12.08,12.08,0,0,1,2,.43,29.32,29.32,0,0,1,8,3A23.57,23.57,0,0,1,690,353.9a18.94,18.94,0,0,1,4.56,9.59,80.66,80.66,0,0,1,1.08,13.92v4q-.36,10.11-1.2,16.89c-.56,4.52-1.66,7.44-2.88,8.76a10.8,10.8,0,0,1-6.9,3.33,41.38,41.38,0,0,1-10.5-.43c-1.52-.23-3.65-.62-6.36-1.14-2.56-.49-4.52-.8-5.88-.95a26.5,26.5,0,0,1-11.16-6.49,20.5,20.5,0,0,1-5.16-9.44,49.5,49.5,0,0,1-1.44-12.4c0-5.47-.07-8.21-.12-13.68a33.89,33.89,0,0,1,.78-9.31q1.14-6,2.34-6.8c.88-2.18,3.18-3.74,6.9-4.61a29.27,29.27,0,0,1,12.54-.43A22.89,22.89,0,0,0,670.92,345.37Zm-7.08,26.5c-.08,1.39-.12,2.44-.12,3.16-.05,1-.07,1.44-.12,2.39,0,2-.22,4.32-.24,6.57a6.45,6.45,0,0,0,2,4.57,7.45,7.45,0,0,0,4.32,2.24,11.21,11.21,0,0,0,4.8-.39c.48-.17,1.08-1.39,1.8-3.68,0-.23.07-.35.12-.58a79.45,79.45,0,0,0,.72-8.65,27.72,27.72,0,0,0-.48-5.23,11.54,11.54,0,0,0-2.34-5.29,6.82,6.82,0,0,0-4.38-2.43,15,15,0,0,0-1.92,0c-2,.38-3.16,1.12-3.48,2.2l-.48,1.87Q664,369.79,663.84,371.87Z"/><path class="cls-1" d="M727.08,420.63a36.2,36.2,0,0,0-4-1.05l-.6-.07c-1.76-.4-3.28-.78-4.56-1.16s-2.68-.88-4.44-1.54q-.6-3.76-.6-16.84c.05-4,.07-6,.12-9.93v-8.4c.05-2.15.07-3.22.12-5.37v-1.92c-4-1.12-6.84-1.8-8.52-2.15-.15-6.37-.22-9.55-.36-15.93,1.58.4,2.37.6,4,1,.64.17,1.34.34,2.1.5a21.09,21.09,0,0,1,2.58.78A22.32,22.32,0,0,1,716,345.88a12.2,12.2,0,0,1,10.5-6.33c4.6-.16,10.8,1.28,18.24,4.27q3.36,1.35,6.48,2.93a25.63,25.63,0,0,1,1.08,7.43,58.16,58.16,0,0,1-.72,8.69c0,.55-.07.83-.12,1.39a26.12,26.12,0,0,0-2.76-1.29,68.73,68.73,0,0,0-10.8-3.32l-1.8-.43.12,0a4,4,0,0,1-1.32-.24l.12,0c-1.6-.26-2.4.9-2.4,3.46q0,.72.24,2.73c7.44,2.64,11.16,4.09,18.6,7.29a23.33,23.33,0,0,0-.24,3.49v2.52a71.75,71.75,0,0,1-.48,8.32l-.12.55v1.08c-2.45-1.19-3.67-1.77-6.12-2.89l-1-.51c-4-1.9-7.68-3.47-11-4.74v41.88l-.72.35A41.93,41.93,0,0,0,727.08,420.63Z"/><path class="cls-1" d="M150.24,637.3q6.24.44,11,.48l1.68,0a7.37,7.37,0,0,1,1.74.09q.9.15,1.5.21l2.76.25c.32,3.76.48,5.9.48,6.45s-.08,1.89-.24,4.26c0,.6-.07.9-.12,1.49,0,1.21-.07,1.81-.12,3,0,.64.08,1.69.24,3.16-7.48-.92-11.23-1.44-18.72-2.6,0,13.88,0,18.81-.12,21.35q1.8,2.19,6.48,3.5a49.1,49.1,0,0,0,9.72,1.62l2.52.08v.88c0,.16.08.24.12.39v-.09a42.85,42.85,0,0,1,.72,7.25,13.13,13.13,0,0,1-1.08,5.43q-3.12.16-6.36.13a69.13,69.13,0,0,1-19.14-2.48c-5.48-1.66-9.74-4.86-10.86-8.59-1.06-3.55-1.2-8.3-1.44-12.43s-.36-8.87-.36-14.2v-5.91a22.19,22.19,0,0,1-2.82-.49q-1.26-.31-2.22-.51c-1.44-.29-2.16-.44-3.6-.75.15-6.31.22-9.48.36-15.82q3.24.6,8.52,1.32c.05-9.53.08-14.32.12-24,1.76-.11,3.28-.16,4.56-.12s2.8.16,4.56.38l.84.15q2.88.35,4.44.39a27.72,27.72,0,0,0,4.68-.28V636C150.17,636.5,150.2,636.77,150.24,637.3Z"/><path class="cls-1" d="M198.9,646.47c0-.05,0-.08.06-.07a22.36,22.36,0,0,1,6.66-3.33,21.49,21.49,0,0,1,7.5-1c5.28.25,9.37,2,12.24,5.26,2.24,2.54,3.36,12.46,3.36,21.45,0,2.64-.06,6.6-.24,11.48-.15,4.18-.24,7-.24,8.62,0,1.82.08,3.79.24,5.89a115.63,115.63,0,0,1-13,.39l-5.64,0c-.16-1.58-.24-4.63-.24-9.53v-4.35c0-2.52-.07-3.8-.12-6.44a12.36,12.36,0,0,1-.12-1.87,15.14,15.14,0,0,0-.66-4.41,5.85,5.85,0,0,0-1-2,8.48,8.48,0,0,0-1.26-1.07,6.07,6.07,0,0,0-2.76-.67,5.87,5.87,0,0,0-3.84,1c-1.12.78-1.68,2.19-1.8,4.07-.06.94-.12,2.43-.12,4.38,0,1.57.09,3.85.24,6.75s.24,5.21.24,6.65c0,2.59.06,6.21-.48,6.75s-3.9.6-5.22.67a35.29,35.29,0,0,1-4.38,0c-.7,0-1.88-.1-3.48-.11-1.84,0-3.64,0-5.4.14v-7.23c-.05-4.26-.07-6.45-.12-10.92-.13-11.2-.11-22.4-.12-33.59,0-12.41,0-24.83.24-37.24a41.2,41.2,0,0,0,6,.64,24.44,24.44,0,0,0,4-.3l2-.3c2.64-.31,4-.47,4.2-.47,1.92,0,2.94.5,3,1.43.2,2.91.24,8.77.24,17.12-.05,5.55-.07,8.29-.12,13.67v8.64Q199,646.54,198.9,646.47Z"/><path class="cls-1" d="M259.74,681.21a7.21,7.21,0,0,0,1.62,2.77,6.86,6.86,0,0,0,2.52,1.9,8.43,8.43,0,0,0,3.24.67,5,5,0,0,0,4.08-1.81c1-1.23,1.48-3.09,1.32-5.71a49,49,0,0,0,7.44.17c4.51.15,6.77.23,11.28.36a37.3,37.3,0,0,1-.78,7.75,9,9,0,0,1-2.94,5.33,14.36,14.36,0,0,1-6.9,2.69,68.71,68.71,0,0,1-10.5.7c-1.52,0-3.64,0-6.36-.14-1.28,0-3.25,0-5.64-.08a26,26,0,0,1-7.44-1.56,17.38,17.38,0,0,1-8.52-8.39,30.52,30.52,0,0,1-2.76-13.39,60.77,60.77,0,0,1,2.88-18.39,18.59,18.59,0,0,1,8.88-10.17,28.45,28.45,0,0,1,14.4-3.64,33.35,33.35,0,0,1,8.4,1.22A20.82,20.82,0,0,1,287.46,652a37.16,37.16,0,0,1,4.26,17c0,.89.28,3.92-.24,4.52s-5,.73-10.44,1.07-10.52.51-15.24.5l-6.48,0v1.92A26.41,26.41,0,0,0,259.74,681.21Zm8.1-25q-4.2,0-6,2.28a13.07,13.07,0,0,0-2.16,6,3.26,3.26,0,0,0-.12.92c0,.41.24.64.72.71a29.81,29.81,0,0,0,3.6,0l5.28-.06,3.6,0,1.56,0c.24.06.4.06.48,0a.55.55,0,0,0,.12-.42v-.41a12.25,12.25,0,0,0-.9-4.55,6.45,6.45,0,0,0-2.46-3.14l-.48-.14A5.86,5.86,0,0,0,267.84,656.25Z"/><path class="cls-1" d="M351.6,652.17c2.64,17.46,4.12,23.65,4.44,24a344.63,344.63,0,0,0,7.8-37.12,27,27,0,0,0,3.12-.11l6.36-.65c2-.34,6.37-.69,7.2.08,1.06,1,1.64,9.43,2.76,17.74,1.28,9.43,2.36,14.79,3.24,17.53a83.52,83.52,0,0,0,2-8.17c.72-3.47,1.2-5.83,1.44-7,.8-3.83,1.62-7.83,2.46-11.84s1.62-7.21,2.34-9.52q1.92-.17,6-.78c2.87-.42,5.2-.7,7-.86q1.44-.12,6.12-.16c-1.84,5.51-3.48,11.26-4.92,17.15s-3.1,13.23-5,21.69c-2.21,9.67-4,16.19-5.28,20.23a84.08,84.08,0,0,1-11.16.59l-6,0q-2-.07-7.32,0a78.12,78.12,0,0,1-1.68-7.82c-.53-2.59-.79-3.92-1.32-6.66-.4,1.57-.84,3.81-1.32,6.59-.08.57-.28,1.69-.6,3.3s-.64,3.94-1.08,4.3c-.94.78-6.68.48-12.12.53-5.2,0-9.8,0-13.8,0-4.81-17.92-8.83-36-13-54.12a26.93,26.93,0,0,0,7,.33l3.72-.4a36,36,0,0,1,3.6-.4,29.84,29.84,0,0,1,4.8.07l1.56-.12C350.4,643.17,351,647.12,351.6,652.17Z"/><path class="cls-1" d="M472.74,631.87a15.87,15.87,0,0,1,.18,2.47c0,1.95-.12,5-.12,9,0,5.49,0,9.85.12,12.75v7.55c.05,3.06.07,4.6.12,7.73q0,7.68-.36,16.12v1.36a9.26,9.26,0,0,1-.48,3.37,3.18,3.18,0,0,1-2.52,1.61l-15.24.15a3.4,3.4,0,0,1-2.76-3.41v-.88a26.23,26.23,0,0,1-6.6,3.33,22.08,22.08,0,0,1-7,1.25,13.83,13.83,0,0,1-10.74-4.85,30.58,30.58,0,0,1-6.54-11.92,48.46,48.46,0,0,1-2.16-14.13,36.83,36.83,0,0,1,2.88-14.53,29,29,0,0,1,7.92-11.06,20.28,20.28,0,0,1,11.16-4.9,36.85,36.85,0,0,1,7,0c2.16.19,3.52.54,4.08,1a6.18,6.18,0,0,0-.24-1.5,1.64,1.64,0,0,1,.12-1.41,3.39,3.39,0,0,1,1.68-.38c1.44-.13,3.34-.19,5.7-.21s3.86,0,4.5,0l7.56-.32,1.56-.14A16.32,16.32,0,0,0,472.74,631.87Zm-33.3,40.72a6.93,6.93,0,0,0,6.48,3.1,5,5,0,0,0,3.84-1.77,8.18,8.18,0,0,0,1.5-4.07,67.68,67.68,0,0,0,.3-7.41v-3.18c0-3.5-.06-5.85-.18-7.09a3,3,0,0,0-1.08-2.42,5.32,5.32,0,0,0-3.18-.32,10.19,10.19,0,0,0-6.24,2.78,11.75,11.75,0,0,0-3.12,5.44A25.57,25.57,0,0,0,437,664,14.45,14.45,0,0,0,439.44,672.59Z"/><path class="cls-1" d="M505.92,622.22v3c-.05,4.07-.07,6.19-.12,10.6-.16,11-.25,20.64-.24,27.1,0,9.57,0,19.2.48,28.78a3.44,3.44,0,0,1-2.46,1.49,26.35,26.35,0,0,1-5.1.43c-2.48,0-4.22,0-5.16-.1a19.22,19.22,0,0,0-7.92.95c.56-9.27.84-17.51.84-24.81,0-5.34-.17-13.23-.48-22.93-.33-10.51-.48-17.44-.48-22.14a150.31,150.31,0,0,1,1.08-19l19.8.2C506.06,611.72,506,615,505.92,622.22Z"/><path class="cls-1" d="M538.68,620.07v2.77c0,3.82-.07,5.86-.12,10.2-.16,10.77-.26,20.67-.24,27.39,0,10.23,0,20.52.48,30.76a3.43,3.43,0,0,1-2.46,1.63,24.51,24.51,0,0,1-5.1.46c-2.48,0-4.22,0-5.16-.12a17.36,17.36,0,0,0-7.92,1c.56-10.28.84-19.19.84-26.93,0-5.66-.17-14-.48-23.68-.33-10.53-.48-17.06-.48-21.41a110.68,110.68,0,0,1,1.08-16.76l19.8.16C538.82,610.51,538.78,613.41,538.68,620.07Z"/><path class="cls-1" d="M594.36,641.14A60.09,60.09,0,0,1,582.12,640a8.63,8.63,0,0,0,.12-1.71,4.76,4.76,0,0,0-1.56-3.7,5.27,5.27,0,0,0-4.56-1.1,5.85,5.85,0,0,0-2.94,1.86,4.18,4.18,0,0,0-1.14,2.83,7.52,7.52,0,0,0,1.08,3.76,6.52,6.52,0,0,0,3.12,2.68h-.12a69.81,69.81,0,0,1,14.52,3.2,15.43,15.43,0,0,1,8.4,6.51,27.24,27.24,0,0,1,3.24,13.3,43.31,43.31,0,0,1-1.92,12.44A21.51,21.51,0,0,1,591.42,692a27.11,27.11,0,0,1-14.22,3.78c-8.41.14-15.7-2.15-20.94-7.5s-7.86-12.78-7.86-21.59a62.38,62.38,0,0,1,9.84-.94c4.61,0,6.91.06,11.52.12a9.21,9.21,0,0,0,2.28,6,6.37,6.37,0,0,0,4.8,2.42,4.17,4.17,0,0,0,3.36-2,9.39,9.39,0,0,0,1.32-5.22c.07-2.51-.4-4.49-1.92-5.51a21.43,21.43,0,0,0-6.84-2.64l-1.8-.4a40.45,40.45,0,0,1-7.44-2.42,24,24,0,0,1-10.26-7.92,17.26,17.26,0,0,1-3.66-10.1,14.18,14.18,0,0,1,3.72-9.57,18.61,18.61,0,0,1,10.08-5.7,61.59,61.59,0,0,1,12.6-1.15c5.84-.08,11.48.07,15.84,1.11a13.8,13.8,0,0,1,8.46,6c1.8,2.84,2.7,5.52,2.7,11l-1.92.72A39.31,39.31,0,0,1,594.36,641.14Z"/><path class="cls-1" d="M670.92,623.75c.45,0,1.48,0,3,.07a13.86,13.86,0,0,1,2,.21,34,34,0,0,1,8,1.75,20.82,20.82,0,0,1,6.06,3.37,12.92,12.92,0,0,1,4.56,7.55,72.17,72.17,0,0,1,1.08,14.2v4.63c-.24,8-.64,14.83-1.2,20.47s-1.65,9.54-2.88,11.5a13.91,13.91,0,0,1-6.9,5.85,30,30,0,0,1-10.5,1.68c-1.52,0-3.65-.12-6.36-.35-2.55-.21-4.52-.33-5.88-.34A21,21,0,0,1,650.76,687a28.46,28.46,0,0,1-5.16-12.16A81.07,81.07,0,0,1,644.16,659c0-6.86-.07-10.2-.12-16.68a28.88,28.88,0,0,1,.78-9c.76-3.26,1.54-5,2.34-5.41.88-1.7,3.18-2.91,6.9-3.67a40.32,40.32,0,0,1,12.54-.8A27,27,0,0,0,670.92,623.75Zm-7.08,24.51c-.08,1.67-.12,3-.12,3.83-.05,1.16-.07,1.74-.12,2.92,0,2.44-.22,5.28-.24,8.14a8.3,8.3,0,0,0,2,5.53,6,6,0,0,0,4.32,2.3,9.54,9.54,0,0,0,4.8-1.15c.48-.28,1.08-1.91,1.8-4.84,0-.29.07-.44.12-.73.48-4.91.72-8.41.72-10.62a38,38,0,0,0-.48-6.19,13.17,13.17,0,0,0-2.34-6,5.84,5.84,0,0,0-4.38-2.36,9.93,9.93,0,0,0-1.92.1q-3,.93-3.48,2.88c-.19.89-.29,1.34-.48,2.24S663.92,646.59,663.84,648.26Z"/><path class="cls-1" d="M727.08,693.07a37.4,37.4,0,0,0-4,.22l-.6.13c-1.76.16-3.28.24-4.56.23a41.47,41.47,0,0,1-4.44-.33c-.4-2.86-.6-9.51-.6-19.64.05-4.62.07-6.92.12-11.46v-9.54c.05-2.43.07-3.64.12-6v-2.15c-4-.55-6.84-.86-8.52-1-.14-7.18-.22-8.49-.36-13.81l4,.39c.64.06,1.34.11,2.1.16a23.55,23.55,0,0,1,2.58.31A18.83,18.83,0,0,1,716,619.28a17.61,17.61,0,0,1,10.5-7.69c4.6-1.31,10.8-1.83,18.24-1.62q3.36.09,6.48.42a21.28,21.28,0,0,1,1.08,7,62.25,62.25,0,0,1-.72,8.9c0,.57-.07.85-.12,1.42a21.7,21.7,0,0,0-2.76-.45,82.16,82.16,0,0,0-10.8-.29l-1.8,0h.12a4.34,4.34,0,0,1-1.32.08H735q-2.4.18-2.4,3.7a22.54,22.54,0,0,0,.24,2.46c7.44,1,11.16,1.51,18.6,2.68a24.19,24.19,0,0,0-.24,3.53V642a73.35,73.35,0,0,1-.48,8.36c-.05.23-.07.35-.12.58V652c-2.45-.65-3.67-1-6.12-1.6l-1-.31q-6-1.67-11-2.67v45.48l-.72.66A35.22,35.22,0,0,0,727.08,693.07Z"/><path class="cls-1" d="M88.63,828.85c5.23-.27,9.94-.57,14.1-.9l2.17-.17a12.68,12.68,0,0,1,2.18-.11c.68,0,1.26,0,1.75,0l3.34-.07a36.89,36.89,0,0,0-4.76,5.9,39.6,39.6,0,0,0-2.8,4c-.35.57-.51.85-.82,1.41a18.82,18.82,0,0,0-1.17,2.83,9.73,9.73,0,0,0-.28,3l-23.39,0c-.54,10.89,7.31,18.64,15.49,24.42a57,57,0,0,0,13,3.74,92.91,92.91,0,0,0,13.2,1.48l2.75,0c.72.46,1.08.7,1.82,1.16l1,.52a1.48,1.48,0,0,0-.21-.13c6.41,3.61,13,6.83,19.06,9.66,5.92,2.74,11.51,5.21,16.52,7.39-1.7,0-3.64,0-5.85-.12A208.12,208.12,0,0,1,128.41,889a221.33,221.33,0,0,1-34.79-9.64,121,121,0,0,1-25.74-13.16c-6.27-4.35-11.31-9.32-13.1-14.92a12,12,0,0,1-.62-6.09,33.25,33.25,0,0,1-3.53.07c-1.05,0-2-.06-2.77,0h-4.5c.93-6.35,3.29-9.52,11.76-15.87,2.51,0,5.91,0,10.19-.11C79.77,818.34,96.8,812.14,113.63,806q3.5-.4,5.52-.53c1.35-.07,2.72-.08,4.12,0l.55.08c1.57,0,2.92,0,4,0q2.42-.13,6-.64c-15.37,6.18-30.73,12.45-43.86,22.78C89.39,828.1,89.13,828.35,88.63,828.85Z"/><path class="cls-1" d="M144.18,832.33s0-.06.11-.06A63.24,63.24,0,0,1,155,828.75a48,48,0,0,1,10.16-1.42c6.41-.1,10.09,1.27,11.88,4.14,1.39,2.23-2.92,9.76.62,22.54,1,3.74,3.11,9.45,10,17.11a92.28,92.28,0,0,0,16.69,14.09A181.31,181.31,0,0,0,222,895.62a48,48,0,0,1-11.71.21l-5.78-.27A189.74,189.74,0,0,1,176.6,880a82.7,82.7,0,0,1-8.68-6.72,51.1,51.1,0,0,1-9.11-9.54,20.93,20.93,0,0,1-2-2.69c-1.7-2.68-2.85-4.75-3.8-6.19a16.11,16.11,0,0,0-2-2.69,14.46,14.46,0,0,0-1.85-1.35,7.5,7.5,0,0,0-3.56-.68,6,6,0,0,0-4.46,1.72c-1.13,1.15-1.32,3.07-.15,5.7a28.8,28.8,0,0,0,3.78,6.11,57.45,57.45,0,0,0,10.09,9.7,136.57,136.57,0,0,0,14.89,10c6.77,4,20.18,10.6,20.18,10.6a7.73,7.73,0,0,1-2.83.85,25.64,25.64,0,0,1-4.33-.17c-.92-.1-2.23-.23-3.87-.32a44.92,44.92,0,0,0-4.88,0,226.9,226.9,0,0,1-23-10.4c-11.77-6-16.46-9-23.46-15.09-13.12-11.34-15.19-24.87-6.38-37.56,11-15.92,36.22-25.4,55.9-33a28.06,28.06,0,0,0,4.77.18q2.07-.12,4.65-.48l2.7-.38,5.17-.63c1.93-.1,2,.25.27,1a244.47,244.47,0,0,0-28,14.61c-7.75,4.84-11,7.26-16,12.1a40.57,40.57,0,0,0-6.65,7.84C144.15,832.4,144.19,832.38,144.18,832.33Z"/><path class="cls-1" d="M225.53,872.4a35.91,35.91,0,0,0,5.84,4.6,33.33,33.33,0,0,0,6,3.3,14.66,14.66,0,0,0,4.86,1.21c1.93,0,2.37-1,1.67-3.09s-2.82-5.23-5.62-9.4a49.2,49.2,0,0,0,9.16.4l14,.88a118.85,118.85,0,0,0,8.67,13.05c3.35,4.39,5.94,7.75,7.09,10,1.36,2.61,1.46,4.39-.24,5.29s-4.48,1.26-8.52,1.11q-2.29-.09-6.86-.52c-1.45-.15-3.58-.14-5.94-.37-3-.28-7.35-1.6-12.62-3.37a167.74,167.74,0,0,1-30.22-15.31c-7.4-4.72-16.51-12.69-20.21-21.09a21,21,0,0,1,2.52-21.86c3.09-4.13,9-7.45,15.69-9.84a61.88,61.88,0,0,1,19.75-3.74,39.77,39.77,0,0,1,9.4,1c6.37,1.45,10,4.72,11.83,10.19s2.81,12.06,4.25,19.72c.23,1.24,1.79,5.82,1.42,6.46-.25.45-5.83.89-12.34,1.26s-12.66.53-18.45.47l-8-.07c.58,1.18.9,1.77,1.58,3A41.4,41.4,0,0,0,225.53,872.4ZM226.4,839c-3.49,0-6.17.78-7.92,2.28a9.14,9.14,0,0,0-3.15,6.34,3.89,3.89,0,0,0-.1,1.26,1,1,0,0,0,1,1,34.24,34.24,0,0,0,4.5,0l6.59,0,4.51.14h1.95q.47.13.6,0a.72.72,0,0,0,.1-.57c0-.23,0-.34,0-.57a16.42,16.42,0,0,0-1.05-5.25,6.24,6.24,0,0,0-2.63-3.26l-.58-.14A7,7,0,0,0,226.4,839Z"/><path class="cls-1" d="M330.71,838.18a80.29,80.29,0,0,0,8.4,31.51c.59-16.17,3.75-30,9.25-45.2a33,33,0,0,0,3.74.13l7.74-.18c2.46-.21,7.82-.19,8.58.7.94,1.11,0,10.83,1.39,21.16,1.55,11.73,4.35,19.55,6.11,23.43.29-2.68.57-6.26,1.05-10.74s1-7.41,1.28-8.8a137.77,137.77,0,0,1,3.44-14.2,75.6,75.6,0,0,1,4.06-10.91c1.55,0,4-.12,7.32-.32q5.26-.32,8.47-.32c1.16,0,3.62.14,7.38.44a144.52,144.52,0,0,0-7,20.22,139.25,139.25,0,0,0-4.62,27.39,165,165,0,0,0,.29,28.1c-2.06.48-5.77.7-11.16.64l-6.12-.07q-2.16-.18-7.56-.24a127.1,127.1,0,0,1-7.85-12.82c-2.3-4.11-3.36-6.16-5.29-10.27a56.84,56.84,0,0,0,2.21,9.95c.29.89.83,2.65,1.76,5.26s2.86,6.89,2.69,7.2c-.27.49-6.39.64-11.94.54-5.31-.09-10.05-.24-14.21-.42-18.43-21.23-37-46-33.51-75.88a39.61,39.61,0,0,0,8.16.67l4.56-.18q1.5-.15,4.41-.18a38.37,38.37,0,0,1,5.68.41h1.9A109.62,109.62,0,0,0,330.71,838.18Z"/><path class="cls-1" d="M480.6,827.3a21.88,21.88,0,0,1,.55,3.29c.17,2.54.38,6.49.51,11.67.17,7,0,12.22-.14,15.71s-.38,5.39-.77,9-.56,5.39-1.08,9a140.68,140.68,0,0,1-4.2,18.1c-.15.6-.23.9-.39,1.5a12.67,12.67,0,0,1-1.51,3.67,4.71,4.71,0,0,1-3.08,1.74c-6.25,0-9.37.06-15.62.08a3.51,3.51,0,0,1-2.36-4c.05-.42.07-.63.12-1.05a32.52,32.52,0,0,1-7.27,3.84,20.53,20.53,0,0,1-7.22,1.43c-4.34,0-8-2.15-11.48-6.46a53,53,0,0,1-8.62-16,64.49,64.49,0,0,1-3.72-18.52,38.78,38.78,0,0,1,3.37-17.91,32.09,32.09,0,0,1,10.05-12.68,23,23,0,0,1,13.65-4.8,42.64,42.64,0,0,1,8.47.76q4,.75,5,1.8a8.73,8.73,0,0,0-.38-1.95,2.12,2.12,0,0,1,.06-1.8q.27-.3,2-.3c1.74,0,4,.13,6.91.39s4.71.43,5.5.53l9.21.47h1.89C480.16,825.26,480.33,826.11,480.6,827.3Zm-40.72,47c1.88,2.94,4.36,4.42,7.55,4.42a5.7,5.7,0,0,0,4.61-1.81,10,10,0,0,0,2.06-4.8,69.77,69.77,0,0,0,.77-9c.06-1.55.08-2.33.12-3.89a86,86,0,0,0-.07-8.77,4.16,4.16,0,0,0-1.33-3.15,7,7,0,0,0-4-.83,11.42,11.42,0,0,0-7.8,2.63,12.71,12.71,0,0,0-3.9,6.37,30.09,30.09,0,0,0-.89,7.8A20.16,20.16,0,0,0,439.88,874.28Z"/><path class="cls-1" d="M518.61,817.78c.54,1.72.79,2.58,1.24,4.31a81.32,81.32,0,0,1,2.57,14.56A99.43,99.43,0,0,1,520,869a134,134,0,0,1-11.25,29.71,7,7,0,0,1-3.33,1.45,33.33,33.33,0,0,1-5.43.44c-2.54,0-4.3,0-5.22-.08a22.48,22.48,0,0,0-8.49,1A117.22,117.22,0,0,0,495.5,875a105.27,105.27,0,0,0,2.41-26.87,181.4,181.4,0,0,0-3.49-29.26,226.07,226.07,0,0,0-7.73-28.2c8.05.26,12.09.41,20.2.71A112.68,112.68,0,0,1,518.61,817.78Z"/><path class="cls-1" d="M557.42,818.11c.79,1.7,1.15,2.55,1.83,4.26a57.25,57.25,0,0,1,3.85,14.39,66.21,66.21,0,0,1-3.39,32c-3.85,10.69-9.87,20.46-16.89,29.37a9.11,9.11,0,0,1-3.7,1.45,36.13,36.13,0,0,1-5.54.48c-2.54,0-4.28,0-5.18-.05a25,25,0,0,0-8.73,1c5.74-8.38,11.38-16.75,14.77-26.36,2.09-5.9,5-15.22,4.41-26.64a101.81,101.81,0,0,0-5.46-29,136.75,136.75,0,0,0-13.71-28c8.1.33,12.16.5,20.32.86C546.67,800.24,553.09,808.29,557.42,818.11Z"/><path class="cls-1" d="M633.51,850.17a79.47,79.47,0,0,1-15.19-1.55,6.81,6.81,0,0,0,.19-1.87,6.6,6.6,0,0,0-2.25-5,7.08,7.08,0,0,0-5.93-1.74,6.12,6.12,0,0,0-3.36,2.37,5.7,5.7,0,0,0-1.21,3.68,8.62,8.62,0,0,0,1.21,4.33,7.1,7.1,0,0,0,3.54,3h-.15A102.59,102.59,0,0,1,627.65,857c4.19,1.41,7.29,3.73,8,6.48,1,3.76-.69,8.28-4.12,12.44a60.21,60.21,0,0,1-13,11.11,90.86,90.86,0,0,1-22,10.39A70.93,70.93,0,0,1,578,901.08c-9,.38-13.48-1.26-14.67-5.8s1.08-11.18,5.53-19.86a100.21,100.21,0,0,1,12-.86l13.5.12c-1.31,2.31-1.74,4.21-1.19,5.67s1.76,2.18,3.77,2.14a11.5,11.5,0,0,0,5.33-1.86,17.74,17.74,0,0,0,5.16-4.85c1.79-2.46,2.28-4.23,1-5.21s-3.56-1.85-6.89-2.58l-2-.41a39.3,39.3,0,0,1-8-2.53,21.59,21.59,0,0,1-10.24-8.74,25.32,25.32,0,0,1-1.19-24.59,14.84,14.84,0,0,1,9.29-7.91c3-.94,7.8-1.36,14.43-1.28,7,.08,14.22.56,20.23,2.23A31.61,31.61,0,0,1,638.83,834c3.72,4.23,5.91,9.17,5.57,14.84l-2.45.71A57.09,57.09,0,0,1,633.51,850.17Z"/><path class="cls-1" d="M718.8,825.12c.45,0,1.64-.1,3.48-.06a18.23,18.23,0,0,1,2.59.18,61.17,61.17,0,0,1,11.39,2,58.1,58.1,0,0,1,10.88,4.13c4.25,2.1,8.6,5.19,10.83,9.44a15.89,15.89,0,0,1,.24,14.82,24.14,24.14,0,0,1-2.47,4.28c-5.67,7.63-15.15,14.21-23.28,18.62a170.78,170.78,0,0,1-22.61,10.29,153.5,153.5,0,0,1-18.72,5.47,93.23,93.23,0,0,1-14.06,2c-1.54.08-3.49.11-5.85.07-2.2-.05-4,0-5.4,0-2.42-.69-2.07-2.72.06-5.59,1.94-2.6,5.62-6,9.91-10.13a119.17,119.17,0,0,0,12.65-14c4.65-6.25,6-9.37,7-15.63a91.8,91.8,0,0,0,.52-10.69c-.19-4.65-.9-7.28-.27-7.91-.33-2.54,1-4.46,4.43-5.75a30.45,30.45,0,0,1,13.36-1.76A25.87,25.87,0,0,0,718.8,825.12Zm0,30.58c-.71,1.57-1.36,2.76-1.8,3.57-.64,1.07-1,1.61-1.75,2.69a51,51,0,0,1-6.3,7.4c-1.82,1.87-2.81,3.58-2.8,4.79s.86,1.8,2.73,1.75a30,30,0,0,0,7.18-1.34,38.15,38.15,0,0,0,7.34-4.44l.85-.67c5.26-4.43,7.72-7.66,9-9.7a14.1,14.1,0,0,0,2.11-5.7,6.34,6.34,0,0,0-1.76-5.43,7.43,7.43,0,0,0-5.4-2,20.37,20.37,0,0,0-2.4.27c-2.5.71-4,1.7-4.55,3-.36.87-.55,1.3-1,2.16A38.45,38.45,0,0,1,718.8,855.7Z"/><path class="cls-1" d="M736.44,891.14c-1.08.07-2.67.23-4.79.5l-1,.16c-2.28.28-4.07.46-5.39.53a35.49,35.49,0,0,1-3.87,0c12.9-5.05,25.57-10.59,37.52-17.63,7-4.22,9.82-6.33,14.19-10.55,3.63-3.56,5-5.34,6.76-8.9a17.07,17.07,0,0,0,2-5.72,12.71,12.71,0,0,0,.21-2c-5,0-8.55.05-10.65.13.15-6.78-1.38-10.17-7.62-17l4.84.08c.78,0,1.62,0,2.51,0a27.26,27.26,0,0,1,3.22.12,168.85,168.85,0,0,0-15.94-14.24c-6-4.72-10.48-8.31-10-9.56s4.85-1.85,12.68-1.39q3.54.21,7.56.65c7.06,2.14,14,4.48,20.44,7a131.32,131.32,0,0,1,18.71,9c1,.57,1.48.86,2.42,1.44-.8-.1-2-.18-3.48-.22a76.58,76.58,0,0,0-11.26.6l-1.77.18h.14a2.7,2.7,0,0,1-1.2.2h.14c-1.42.28-.06,1.74,3.07,4.38.58.5,1.74,1.41,3.27,2.73,9.11.16,13.66.24,22.77.42,1,1.11,2.12,2.32,3.18,3.6a21.67,21.67,0,0,1,1.85,2.53,12.47,12.47,0,0,1,2.13,8.54c-.06.24-.09.36-.16.6,0,.43,0,.65-.09,1.08l-7.61-.35-1.19-.12c-5-.31-9.56-.52-13.76-.6-2.56,25-46,36.63-63.57,43.19l-2.54.66A24.75,24.75,0,0,0,736.44,891.14Z"/><text class="cls-2" transform="translate(942.52 889.48)">the<tspan class="cls-3" x="177.6" y="0"> </tspan><tspan class="cls-4" x="207.6" y="0">w</tspan><tspan x="295.68" y="0">alls o</tspan><tspan class="cls-5" x="582.24" y="0">f</tspan></text><text class="cls-2" transform="translate(959.52 696.48)">the<tspan class="cls-3" x="177.6" y="0"> </tspan><tspan class="cls-4" x="207.6" y="0">w</tspan><tspan x="295.68" y="0">alls o</tspan><tspan class="cls-5" x="582.24" y="0">f</tspan></text><text class="cls-2" transform="translate(942.52 459.48)">the<tspan class="cls-3" x="177.6" y="0"> </tspan><tspan class="cls-4" x="207.6" y="0">w</tspan><tspan x="295.68" y="0">alls o</tspan><tspan class="cls-5" x="582.24" y="0">f</tspan></text><text class="cls-2" transform="translate(942.52 237.48)">the<tspan class="cls-3" x="177.6" y="0"> </tspan><tspan class="cls-4" x="207.6" y="0">w</tspan><tspan x="295.68" y="0">alls o</tspan><tspan class="cls-5" x="582.24" y="0">f</tspan></text></g></svg>