<svg xmlns="http://www.w3.org/2000/svg" viewBox="0 0 1920 1080"><defs><style>.cls-1{font-size:120px;fill:#f15a24;stroke:#000;stroke-miterlimit:10;font-family:LondrinaSolid-Black, Londrina Solid Black;font-weight:800;letter-spacing:0.07em;}.cls-2{letter-spacing:0.05em;}.cls-3{letter-spacing:0.05em;}.cls-4{letter-spacing:0.03em;}.cls-5{letter-spacing:0.07em;}.cls-6{letter-spacing:0.06em;}.cls-7{letter-spacing:0.03em;}.cls-8{letter-spacing:0.05em;}.cls-9{letter-spacing:0.07em;}.cls-10{letter-spacing:0.05em;}</style></defs><title>Artboard 4</title><g id="The_Walls_Of" data-name="The Walls Of"><text class="cls-1" transform="translate(102.52 140.48)">The <tspan class="cls-2" x="216.36" y="0">W</tspan><tspan x="278.64" y="0">alls O</tspan><tspan class="cls-3" x="569.39" y="0">f</tspan><tspan x="621.36" y="0" xml:space="preserve"> ...</tspan></text><text class="cls-1" transform="translate(102.52 367.48)">The <tspan class="cls-2" x="216.36" y="0">W</tspan><tspan x="278.64" y="0">alls O</tspan><tspan class="cls-4" x="569.39" y="0">f</tspan><tspan class="cls-5" x="618" y="0">...</tspan></text><text class="cls-1" transform="translate(102.52 564.48)">The <tspan class="cls-2" x="216.36" y="0">W</tspan><tspan x="278.64" y="0">alls O</tspan><tspan class="cls-3" x="569.39" y="0">f</tspan></text><text class="cls-1" transform="translate(102.52 744.48)">The <tspan class="cls-2" x="216.36" y="0">W</tspan><tspan x="278.64" y="0">alls O</tspan><tspan class="cls-4" x="569.39" y="0">f</tspan><tspan class="cls-5" x="618" y="0">.com</tspan></text><text class="cls-1" transform="translate(102.52 939.48)">Th<tspan class="cls-6" x="123" y="0">e</tspan><tspan class="cls-3" x="183.48" y="0">W</tspan><tspan x="245.76" y="0">allsO</tspan><tspan class="cls-7" x="504.48" y="0">f</tspan><tspan class="cls-5" x="553.08" y="0">.com</tspan></text><text class="cls-1" transform="translate(1047.52 947.48)">th<tspan class="cls-3" x="116.28" y="0">e</tspan><tspan class="cls-8" x="176.04" y="0">w</tspan><tspan class="cls-9" x="264.12" y="0">allso</tspan><tspan class="cls-4" x="518.64" y="0">f</tspan><tspan x="567.24" y="0">.com</tspan></text><text class="cls-1" transform="translate(1047.52 744.48)">the<tspan class="cls-10" x="177.6" y="0"> </tspan><tspan class="cls-8" x="207.6" y="0">w</tspan><tspan x="295.68" y="0">alls o</tspan><tspan class="cls-7" x="582.24" y="0">f</tspan><tspan x="630.84" y="0">.com</tspan></text><text class="cls-1" transform="translate(1047.52 564.48)">the<tspan class="cls-10" x="177.6" y="0"> </tspan><tspan class="cls-8" x="207.6" y="0">w</tspan><tspan x="295.68" y="0">alls o</tspan><tspan class="cls-3" x="582.24" y="0">f</tspan></text><text class="cls-1" transform="translate(1047.52 367.48)">the<tspan class="cls-10" x="177.6" y="0"> </tspan><tspan class="cls-8" x="207.6" y="0">w</tspan><tspan x="295.68" y="0">alls o</tspan><tspan class="cls-7" x="582.24" y="0">f</tspan><tspan x="630.84" y="0">...</tspan></text><text class="cls-1" transform="translate(1047.52 142.48)">the<tspan class="cls-10" x="177.6" y="0"> </tspan><tspan class="cls-8" x="207.6" y="0">w</tspan><tspan x="295.68" y="0">alls o</tspan><tspan class="cls-3" x="582.24" y="0">f</tspan><tspan x="634.2" y="0" xml:space="preserve"> ...</tspan></text></g></svg>