<svg xmlns="http://www.w3.org/2000/svg" viewBox="0 0 1962 1080"><defs><style>.cls-1,.cls-15,.cls-2,.cls-6{font-size:77px;stroke:#000;stroke-miterlimit:10;}.cls-1,.cls-5{font-family:Colleged;}.cls-2{fill:#999;}.cls-15,.cls-2,.cls-6{font-family:LondrinaSolid-Black, Londrina Solid Black;font-weight:800;}.cls-3{letter-spacing:-0.02em;}.cls-4{letter-spacing:-0.02em;}.cls-10,.cls-11,.cls-12,.cls-13,.cls-14,.cls-17,.cls-18,.cls-5,.cls-7,.cls-8,.cls-9{font-weight:400;}.cls-5,.cls-7{letter-spacing:0em;}.cls-10,.cls-11,.cls-12,.cls-13,.cls-14,.cls-17,.cls-18,.cls-7,.cls-8,.cls-9{font-family:PeaceSans, Peace Sans;}.cls-10,.cls-11,.cls-8,.cls-9{font-size:85px;}.cls-8{letter-spacing:0em;}.cls-9{letter-spacing:-0.01em;}.cls-11{letter-spacing:-0.02em;}.cls-12{letter-spacing:-0.01em;}.cls-14{letter-spacing:-0.02em;}.cls-15{fill:#ff05f2;}.cls-16{letter-spacing:-0.01em;}.cls-17{letter-spacing:-0.01em;}.cls-18{letter-spacing:0em;}</style></defs><title>Artboard 15</title><g id="Layer_7" data-name="Layer 7"><text class="cls-1" transform="translate(28.53 139.48)">the walls of Confessions</text><text class="cls-2" transform="translate(28.53 318.48)">the<tspan class="cls-3" x="98.48" y="0"> </tspan><tspan class="cls-4" x="112.57" y="0">w</tspan><tspan x="163.93" y="0">alls of</tspan><tspan class="cls-5" x="346.03" y="0" xml:space="preserve"> Confessions</tspan></text><text class="cls-6" transform="translate(28.53 508.48)">the<tspan class="cls-3" x="98.48" y="0"> </tspan><tspan class="cls-4" x="112.57" y="0">w</tspan><tspan x="163.93" y="0">alls of</tspan><tspan class="cls-7" x="346.03" y="0"> </tspan><tspan class="cls-8" x="361.43" y="0">sec</tspan><tspan class="cls-9" x="504.66" y="0">r</tspan><tspan class="cls-10" x="544.61" y="0">e</tspan><tspan class="cls-11" x="596.46" y="0">t</tspan><tspan class="cls-10" x="634.71" y="0">es</tspan></text><text class="cls-6" transform="translate(1229.53 689.48)">the<tspan class="cls-3" x="98.48" y="0"> </tspan><tspan class="cls-4" x="112.57" y="0">w</tspan><tspan x="163.93" y="0">all of</tspan><tspan class="cls-7" x="311.38" y="0" xml:space="preserve"> sec</tspan><tspan class="cls-12" x="456.53" y="0">r</tspan><tspan class="cls-13" x="492.72" y="0">e</tspan><tspan class="cls-14" x="539.69" y="0">t</tspan><tspan class="cls-13" x="574.34" y="0">es</tspan></text><text class="cls-15" transform="translate(505.53 689.48)">the<tspan class="cls-3" x="98.48" y="0"> </tspan><tspan class="cls-4" x="112.57" y="0">w</tspan><tspan x="163.93" y="0">all of</tspan><tspan class="cls-7" x="311.38" y="0" xml:space="preserve"> sec</tspan><tspan class="cls-12" x="456.53" y="0">r</tspan><tspan class="cls-13" x="492.72" y="0">e</tspan><tspan class="cls-14" x="539.69" y="0">t</tspan><tspan class="cls-13" x="574.34" y="0">es</tspan></text><text class="cls-15" transform="translate(505.53 826.48)"><tspan class="cls-4">w</tspan><tspan x="51.36" y="0">all of</tspan><tspan class="cls-13" x="198.81" y="0" xml:space="preserve"> sec</tspan><tspan class="cls-12" x="343.96" y="0">r</tspan><tspan class="cls-13" x="380.15" y="0">e</tspan><tspan class="cls-14" x="427.12" y="0">t</tspan><tspan class="cls-13" x="461.77" y="0">es</tspan></text><text class="cls-15" transform="translate(505.53 998.48)">The <tspan class="cls-16" x="118.19" y="0">W</tspan><tspan x="153" y="0">all of</tspan><tspan class="cls-13" x="300.45" y="0" xml:space="preserve"> Sec</tspan><tspan class="cls-17" x="454.06" y="0">r</tspan><tspan class="cls-18" x="490.25" y="0">e</tspan><tspan class="cls-14" x="537.22" y="0">t</tspan><tspan class="cls-13" x="571.87" y="0">es</tspan></text></g></svg>