<svg xmlns="http://www.w3.org/2000/svg" viewBox="0 0 1920 1080"><defs><style>.cls-1,.cls-6,.cls-9{font-size:120px;font-family:LondrinaSolid-Black, Londrina Solid Black;font-weight:800;}.cls-1,.cls-11,.cls-6,.cls-9{fill:#f15a24;stroke:#000;stroke-miterlimit:10;}.cls-1,.cls-10{letter-spacing:0.05em;}.cls-2,.cls-9{letter-spacing:0.07em;}.cls-3{letter-spacing:0.07em;}.cls-4{letter-spacing:0.01em;}.cls-5{letter-spacing:0.07em;}.cls-6{letter-spacing:0.05em;}.cls-7{letter-spacing:0.05em;}.cls-8{letter-spacing:0.06em;}</style></defs><title>flat</title><g id="Layer_2" data-name="Layer 2"><text class="cls-1" transform="translate(379.52 142.48)">W<tspan class="cls-2" x="62.28" y="0">all o</tspan><tspan x="286.8" y="0">f</tspan><tspan class="cls-3" x="338.76" y="0"> </tspan><tspan class="cls-4" x="370.8" y="0">F</tspan><tspan class="cls-5" x="431.04" y="0">rustrations</tspan></text><text class="cls-6" transform="translate(379.52 947.48)">w<tspan class="cls-2" x="88.08" y="0">all o</tspan><tspan class="cls-7" x="312.6" y="0">f</tspan><tspan class="cls-8" x="364.56" y="0"> </tspan><tspan class="cls-5" x="395.16" y="0">frustrations</tspan></text><text class="cls-9" transform="translate(379.52 725.48)">The <tspan class="cls-7" x="216.36" y="0">W</tspan><tspan x="278.64" y="0">all o</tspan><tspan class="cls-10" x="503.16" y="0">f</tspan><tspan x="555.12" y="0"> </tspan><tspan class="cls-4" x="587.16" y="0">F</tspan><tspan x="647.4" y="0">rustrations</tspan></text><path class="cls-11" d="M431,408.53c-1.43,14.06-2.8,28.19-4.08,42.3a16,16,0,0,1-4.38-.33c-1.88-.33-6.55-.35-8.58-1.71-.88-.6-1.74-3.07-2.34-5s-1.21-4.34-1.86-7.19a60.45,60.45,0,0,0-1.8-6.75c-2.64,8.69-4.3,15.51-4.92,15.93-.83.58-5-.45-7.44-1a45,45,0,0,1-6.36-2c-.28-2.24-.43-3.35-.72-5.58-2.15-13.41-3.94-26.93-5.22-40.39-1.26-13.29-2.16-26.63-2.82-40a61.24,61.24,0,0,1,9.6,1.6c2.16.59,3.24.87,5.4,1.44s4.16,1.22,5.76,1.6q.48,5.5.48,19.55v2.28q0,14.64.72,21.16a50.84,50.84,0,0,0,1.2-5,52.71,52.71,0,0,1,1.32-5.59,8.41,8.41,0,0,1,2.28-3.68q3.84,3.38,5.88,16.64c.15-6.35.22-9.53.36-15.88.32-12.58.13-24.8,1.08-25.69.74-.7,6.48.27,10.32,1q4.68.93,9.12,2.23l.84.75C433.78,382.31,432.34,395.45,431,408.53Z"/><path class="cls-11" d="M496.35,403.25a20.34,20.34,0,0,1,.18,2.66c0,2-.12,5.19-.12,9.35,0,5.6,0,9.81.12,12.61v7.2c0,2.89.07,4.33.11,7.22q0,7.08-.36,14.48V458a6.77,6.77,0,0,1-.48,2.89c-.31.64-1.16,1-2.52,1.1-6.09-.67-9.14-1-15.24-1.81q-2.76-1.2-2.76-3.6v-.84a24,24,0,0,1-6.59,2.16,21.54,21.54,0,0,1-7,.13A16.12,16.12,0,0,1,451,451.17a40.54,40.54,0,0,1-6.54-13.87,58.36,58.36,0,0,1-2.17-15.2,31.31,31.31,0,0,1,2.88-13.84,19.86,19.86,0,0,1,7.92-8.83,17.28,17.28,0,0,1,11.16-2.14,40.51,40.51,0,0,1,7,1.59q3.24,1,4.08,2a6.71,6.71,0,0,0-.24-1.6,1.65,1.65,0,0,1,.12-1.42c.16-.14.72-.14,1.69,0,1.43.19,3.34.53,5.69,1s3.86.81,4.5,1c3,.5,4.54.74,7.57,1.22l1.55.17A20.2,20.2,0,0,0,496.35,403.25ZM463,436.66a8.87,8.87,0,0,0,6.48,4.47c1.76.24,3.05-.07,3.84-.92a6.35,6.35,0,0,0,1.5-3.64,62.08,62.08,0,0,0,.3-7.16v-3.12c0-3.44-.05-5.79-.17-7a4,4,0,0,0-1.08-2.67,6.38,6.38,0,0,0-3.19-1.09,8.28,8.28,0,0,0-6.23,1.22,8.39,8.39,0,0,0-3.13,4.64,23.24,23.24,0,0,0-.72,6.13A17.25,17.25,0,0,0,463,436.66Z"/><path class="cls-11" d="M529.53,398.36v3.48c0,4.7-.08,7.05-.13,11.76q-.24,17.5-.24,26.14,0,16.2.48,24a3.36,3.36,0,0,1-2.45,1,32.23,32.23,0,0,1-5.11-.08c-2.48-.19-4.21-.39-5.16-.54a23.41,23.41,0,0,0-7.92,0q.84-11.44.84-21.28c0-4.8-.17-12-.48-21.65-.33-10.41-.48-18.28-.48-23.56A222.73,222.73,0,0,1,510,375.08c7.92.86,11.88,1.25,19.8,1.94Z"/><path class="cls-11" d="M562.28,400.07v3.48c0,4.7-.07,7.06-.12,11.76q-.24,17.51-.24,26.15,0,16.2.48,24a3.54,3.54,0,0,1-2.46,1,33.29,33.29,0,0,1-5.1.09c-2.48-.11-4.21-.25-5.16-.35a22.93,22.93,0,0,0-7.92.3q.84-11.47.84-21.31,0-7.2-.48-21.63-.5-15.6-.48-23.55a223.92,223.92,0,0,1,1.08-22.61c7.92.58,11.88.83,19.8,1.25C562.43,387.26,562.38,391.53,562.28,400.07Z"/><path class="cls-11" d="M632.48,404.28c.45,0,1.48-.16,3-.2a11.45,11.45,0,0,1,2,.06,27.57,27.57,0,0,1,8,1.35,18.26,18.26,0,0,1,6.06,3.43,14.24,14.24,0,0,1,4.56,8.45A75.68,75.68,0,0,1,657.2,431v4q-.36,10.21-1.2,17.21c-.56,4.67-1.64,7.85-2.88,9.49a14.07,14.07,0,0,1-6.9,4.95,37.51,37.51,0,0,1-10.5,1.66c-1.52,0-3.64,0-6.36-.07-2.55-.1-4.52-.14-5.88-.12a21.82,21.82,0,0,1-11.16-5.24,18.35,18.35,0,0,1-5.16-9,48.16,48.16,0,0,1-1.44-12.29c0-5.47-.07-8.21-.12-13.68a34.4,34.4,0,0,1,.78-9.36q1.14-6.12,2.34-7,1.32-3.36,6.9-5.22c3.72-1.25,8.38-2.35,12.54-2A20,20,0,0,0,632.48,404.28Zm-7.08,27.58c-.08,1.41-.12,2.47-.12,3.19,0,1-.07,1.44-.12,2.4,0,2-.21,4.33-.24,6.6a5.56,5.56,0,0,0,2,4.28,6.24,6.24,0,0,0,4.32,1.58,11.66,11.66,0,0,0,4.8-1.21c.48-.25,1.08-1.59,1.8-4,0-.25.07-.37.12-.61a83,83,0,0,0,.72-8.78,25.71,25.71,0,0,0-.48-5.15,9.34,9.34,0,0,0-2.34-4.85,5.74,5.74,0,0,0-4.38-1.68,16.23,16.23,0,0,0-1.92.29c-2,.69-3.16,1.59-3.48,2.72l-.48,1.93Q625.52,429.76,625.4,431.86Z"/><path class="cls-11" d="M688.64,463.82c-1,.07-2.36.24-4,.5l-.6.15a45.24,45.24,0,0,1-4.56.52c-1.2.08-2.68.08-4.44,0q-.6-3.57-.6-16.64c0-4,.07-6,.12-10V430c0-2.16.07-3.24.12-5.41v-1.92q-6,.34-8.52.58c-.14-6.33-.21-9.49-.36-15.82l4-.21c.64,0,1.34-.09,2.1-.17a19.08,19.08,0,0,1,2.58-.08,27.79,27.79,0,0,1,3.06-13.74A20.68,20.68,0,0,1,688,383c4.58-2,10.8-3.12,18.24-3.68q3.36-.26,6.48-.27a20.48,20.48,0,0,1,1.08,6.88,65.37,65.37,0,0,1-.72,9c0,.58-.07.87-.12,1.45a23.56,23.56,0,0,0-2.76.1,86.32,86.32,0,0,0-10.8,1.77l-1.8.37h.12a4,4,0,0,1-1.32.33h.12q-2.4.64-2.4,4.48a25.2,25.2,0,0,0,.24,2.63c7.44-.52,11.16-.79,18.6-1.39a26,26,0,0,0-.24,3.62v2.52a78.11,78.11,0,0,1-.48,8.56c0,.24-.07.37-.12.61v1.08l-6.12.11-1,0q-6,0-11,.19v41.88l-.72.65A41.84,41.84,0,0,0,688.64,463.82Z"/><path class="cls-11" d="M785.12,425.2c-.8.17-1.76.33-2.88.49a21.5,21.5,0,0,0-3.36.79c-.33,10.22-.5,15.32-.84,25.54v4.2a132,132,0,0,1-14.64,2.15c-5.52.57-8.84.5-10-.19,0-7.83.08-11.74.12-19.57V422.89c.13-15.48-3.23-42.11.12-46.45.85-1.1,8.42-1.93,14.94-3.09s12.78-2.1,18.78-2.77c9.84-1.1,17.68-1.31,23.52-.56v2.28c0,.32,0,1,.06,2s.14,3.25.18,6.64c0,2.76-.08,5.33-.24,7.59L802.16,390l-4.44.75-2.16.37c-2.59.45-3.88.67-6.48,1.1-4.56.68-8,1.25-10.32,1.75l-.36.88A10.77,10.77,0,0,0,778,398a28.81,28.81,0,0,0,.24,3.75,6.93,6.93,0,0,0,.48,2.17,46.7,46.7,0,0,0,5.76-.28,69.35,69.35,0,0,0,9.72-1.7,13.47,13.47,0,0,1,.6,5v2.4c0,1.15-.07,1.73-.12,2.89,0,.92-.07,1.38-.12,2.29v2.28c0,1.68.08,3.56.24,5.62,0,.4-.66.74-1.92,1.06C791.89,423.74,789.28,424.33,785.12,425.2Z"/><path class="cls-11" d="M834.62,391.18a15.82,15.82,0,0,1,1.74-.88,49.53,49.53,0,0,1,13.08-3.21c3.92-.49,5.88-.55,5.88-.15,0,2.51-.07,3.76-.12,6.26,0,6.47.08,9.71.12,16.18l-3.24-.66-7-.8a43.94,43.94,0,0,0-5.16.29,9,9,0,0,0-5.64,2.51c-1.28,1.36-1.89,3.52-1.8,6.46.33,10.67,2.94,28.48.48,32.1-.54.81-3.8,1.37-5.16,1.66a33.61,33.61,0,0,1-5.16.7c-.77,0-2.08.13-3.84.34q-2.88.36-5.52.91,0-14.4-.12-21.35-.26-15.56-.24-23.61,0-5.88.24-16.71a50.29,50.29,0,0,0,6-.24,51.18,51.18,0,0,0,6.12-1.11,49.6,49.6,0,0,1,5.64-1.05c1.36-.17,2-.14,2,.1,0,1.15.08,1.72.12,2.87v.12A7.68,7.68,0,0,0,834.62,391.18Z"/><path class="cls-11" d="M894.68,437.15l-.24.15.12,0a29.33,29.33,0,0,1-6.6,3.93,28.15,28.15,0,0,1-7.56,2.13q-7.92,1-12.24-2.25-3.36-2.56-3.36-19.37c0-3.28.07-8.3.24-15,.15-5.77.24-9.91.24-12.39q0-4.08-.24-9.09a73.8,73.8,0,0,1,13-2.4l5.64-.74q.24,3.57.24,13.89c0,4.48,0,8.53.24,12,.07,1,.07,2.44.12,4.06.16,5.17,1.28,8.56,2.88,9.71a5.76,5.76,0,0,0,2.64.13,6.11,6.11,0,0,0,3.78-2.05,8.7,8.7,0,0,0,1.86-5.41c.16-2.25.24-3.91.24-4.95q0-4.08-.36-8.35-.12-1.43-.24-4.23c-.08-1.87-.12-3.52-.12-5,0-4.16-.23-9.34.6-10.4.7-.88,3.76-1.4,5-1.68a25.75,25.75,0,0,1,4.32-.63c.7,0,2-.14,3.72-.37s3.64-.56,5.4-.95q0,14.4.12,21.35c.17,10.37.24,18.25.24,23.6q0,5.76-.24,16.6l-2.88.25c-1.68.22-3.27.44-4.68.74-2.36.49-4.88,1-7.44,1.33-2.8.37-4.16.23-4.2-.28-.07-.95-.24-2.41-.24-4.17Z"/><path class="cls-11" d="M970.28,391.86a62.43,62.43,0,0,1-12.24.21,7.26,7.26,0,0,0,.12-1.57,5.24,5.24,0,0,0-1.56-4,4.62,4.62,0,0,0-4.56-.86A6.63,6.63,0,0,0,949.1,388,5.29,5.29,0,0,0,948,391.2a5.89,5.89,0,0,0,1.08,3.46,5.45,5.45,0,0,0,3.12,2.12l-.12,0a84.21,84.21,0,0,1,14.52,1.28c3.68.74,6.73,2.26,8.4,4.47a17,17,0,0,1,3.24,10.17,26.77,26.77,0,0,1-1.92,9.59,20,20,0,0,1-8.94,9.63,39.46,39.46,0,0,1-14.22,4.44c-8.53,1.18-15.7.58-20.94-2.58s-7.86-8.3-7.86-15.42a83,83,0,0,1,9.84-1.88l11.52-1.25A5.51,5.51,0,0,0,948,419.7a6.46,6.46,0,0,0,4.8,1.25,5.27,5.27,0,0,0,3.36-1.93,6.65,6.65,0,0,0,1.32-4.19c.07-1.95-.4-3.49-1.92-4.14a23.57,23.57,0,0,0-6.84-1.34l-1.8-.13a41,41,0,0,1-7.44-1.2,19.3,19.3,0,0,1-10.26-5.93,14.12,14.12,0,0,1-3.66-9.42,18.59,18.59,0,0,1,3.72-10.81A22.52,22.52,0,0,1,939.32,374a53.15,53.15,0,0,1,12.6-2.82c5.84-.74,11.59-1.17,15.84-.32a12.84,12.84,0,0,1,8.46,6.69,25.44,25.44,0,0,1,2.7,12.21l-1.92.83A44.94,44.94,0,0,1,970.28,391.86Z"/><path class="cls-11" d="M1014.56,366.53q6.24-.94,11-1.82l1.68-.31a9,9,0,0,1,1.74-.25c.6,0,1.1,0,1.5-.1l2.76-.29c.32,3.16.48,5,.48,5.47s-.08,1.65-.24,3.74c0,.53-.07.8-.12,1.33-.05,1.07-.07,1.6-.12,2.66a24.58,24.58,0,0,0,.24,2.73c-7.48.8-11.23,1.21-18.72,2.06q0,19.08-.12,23.41c1.2,1.39,3.36,2.26,6.48,2.63a42.65,42.65,0,0,0,9.72,0l2.52-.39v1.08c0,.19.08.29.12.47v-.12a62.76,62.76,0,0,1,.72,8.93,22.21,22.21,0,0,1-1.08,7.07q-3.12.57-6.36.93a63.67,63.67,0,0,1-19.14-.44c-5.48-1.09-9.76-3.93-10.86-7.55s-1.2-8.48-1.44-12.73-.36-9.14-.36-14.66v-6a22.4,22.4,0,0,1-2.82.4q-1.26.09-2.22.21l-3.6.43c.15-6.35.22-9.53.36-15.88,2.16-.18,5-.49,8.52-.91,0-9.17.08-13.76.12-22.93q2.64-.56,4.56-.78c1.28-.15,2.8-.25,4.56-.29l.84,0q2.88-.09,4.44-.27a32.83,32.83,0,0,0,4.68-.89v21.84C1014.49,365.82,1014.52,366.06,1014.56,366.53Z"/><path class="cls-11" d="M1065.38,363.13a13.48,13.48,0,0,1,1.74-.82,46.31,46.31,0,0,1,13.08-2.72c3.92-.34,5.88-.3,5.88.1,0,2.5-.07,3.75-.12,6.25,0,6.48.07,9.72.12,16.19l-3.24-.81-7-1.08a40.69,40.69,0,0,0-5.16.1,8.68,8.68,0,0,0-5.64,2.32c-1.28,1.32-1.89,3.47-1.8,6.41.33,10.66,2.91,28.64.48,32.11-.54.77-3.8,1.26-5.16,1.51a34.28,34.28,0,0,1-5.16.56c-.77,0-2.08.09-3.84.26q-2.88.28-5.52.8,0-14.4-.12-21.35-.26-15.56-.24-23.61,0-5.88.24-16.71a44.49,44.49,0,0,0,12.12-1.09,48.49,48.49,0,0,1,5.64-.9c1.36-.12,2-.07,2,.17,0,1.15.07,1.72.12,2.87v.12A7.58,7.58,0,0,0,1065.38,363.13Z"/><path class="cls-11" d="M1148.06,357a18.07,18.07,0,0,1,.18,2.63c0,2.05-.12,5.21-.12,9.37q0,8.4.12,12.59v7.2c0,2.88.07,4.32.12,7.19q0,7.1-.36,14.54v1.2a7.26,7.26,0,0,1-.48,3,3.4,3.4,0,0,1-2.52,1.5c-6.09.28-9.14.43-15.24.78-1.84-.46-2.76-1.48-2.76-3.08v-.84a30.41,30.41,0,0,1-6.6,3.46,24.19,24.19,0,0,1-7,1.59,12.69,12.69,0,0,1-10.74-4.41,30.76,30.76,0,0,1-6.54-12.29,52.46,52.46,0,0,1-2.16-14.65,36.18,36.18,0,0,1,2.88-14.56,27.65,27.65,0,0,1,7.92-10.73,19.93,19.93,0,0,1,11.16-4.61,35.44,35.44,0,0,1,7,.16q3.24.4,4.08,1.2a6.6,6.6,0,0,0-.24-1.55,1.72,1.72,0,0,1,.12-1.45,3.37,3.37,0,0,1,1.68-.33c1.44-.09,3.34-.09,5.7,0s3.86.14,4.5.19h7.56l1.56-.07A18.91,18.91,0,0,0,1148.06,357Zm-33.3,39.46a7,7,0,0,0,6.48,3.12,5,5,0,0,0,3.84-1.67,7.73,7.73,0,0,0,1.5-3.93,63.77,63.77,0,0,0,.3-7.22v-3.12c0-3.43-.06-5.77-.18-7a3.17,3.17,0,0,0-1.08-2.46,5.47,5.47,0,0,0-3.18-.47,9.68,9.68,0,0,0-6.24,2.49,11.12,11.12,0,0,0-3.12,5.31,25.19,25.19,0,0,0-.72,6.29A14.6,14.6,0,0,0,1114.76,396.5Z"/><path class="cls-11" d="M1186.4,354.34q6.24-.33,11-.71l1.68-.13a8.34,8.34,0,0,1,1.74-.07q.9.06,1.5.06h2.76q.48,4.8.48,5.52t-.24,3.72c0,.53-.07.79-.12,1.32,0,1.06-.07,1.58-.12,2.64a25.36,25.36,0,0,0,.24,2.76c-7.49,0-11.23,0-18.72.13q0,19.08-.12,23.4,1.8,2.25,6.48,3.28a44.89,44.89,0,0,0,9.72,1l2.52-.12v1.08l.12.48v-.12a64.36,64.36,0,0,1,.72,9,21.18,21.18,0,0,1-1.08,7q-3.12.24-6.36.25a67.22,67.22,0,0,1-19.14-2.34c-5.48-1.61-9.75-4.77-10.86-8.55s-1.2-8.59-1.44-12.86-.36-9.17-.36-14.69v-6a24.29,24.29,0,0,1-2.82.15c-.84,0-1.58,0-2.22,0l-3.6.13c.14-6.34.22-9.51.36-15.86,2.16,0,5-.05,8.52-.16.05-9.17.07-13.75.12-22.92,1.76-.21,3.28-.34,4.56-.37s2.8,0,4.56.13l.84.1q2.88.18,4.44.15a33.28,33.28,0,0,0,4.68-.44v21.84C1186.33,353.62,1186.35,353.86,1186.4,354.34Z"/><path class="cls-11" d="M1235.72,372.43c0,2.69-.07,4-.12,6.72q-.24,11-.24,16.55,0,10.32.48,18.13a3.5,3.5,0,0,1-2.46,1.07,33.84,33.84,0,0,1-5.1.18c-2.48-.06-4.21-.14-5.16-.22a22.24,22.24,0,0,0-7.92.61q.6-8,.6-16.2c0-3.36-.06-8.33-.24-14.88-.15-5.42-.24-10.16-.24-14.16q0-8.88.72-17.15a20.27,20.27,0,0,1,2.88-.21,8.62,8.62,0,0,1,1.68.15c5,.31,8.84.48,11.64.47l3.72.71Q1236,360.44,1235.72,372.43Zm-.12-39.24c0,.77.08,2.24.24,4.32.1,3.08.14,4.62.24,7.69a2.31,2.31,0,0,1-1.92.67,22.22,22.22,0,0,1-2.28-.24,17.87,17.87,0,0,0-2.4-.24c-1,0-2.5-.12-4.56-.34-.79-.09-2.16-.16-4.08-.19q-3.12,0-4.8.06,0-2.52-.24-6.61c0-.76-.07-1.15-.12-1.92q-.24-5.28-.12-9.36c8,.23,12,.38,19.92.75C1235.48,329.94,1235.56,331.78,1235.6,333.19Z"/><path class="cls-11" d="M1274,354.24c.44,0,1.48,0,3,.09a12,12,0,0,1,2,.27,28.53,28.53,0,0,1,8,2.25,20.6,20.6,0,0,1,6.06,4.18,16.65,16.65,0,0,1,4.56,9.05,78.36,78.36,0,0,1,1.08,13.79v4q-.36,10.16-1.2,17c-.56,4.59-1.65,7.63-2.88,9.1a12.06,12.06,0,0,1-6.9,4.07,38.08,38.08,0,0,1-10.5.51c-1.52-.11-3.65-.33-6.36-.67s-4.52-.53-5.88-.61a24.23,24.23,0,0,1-11.16-6,19.65,19.65,0,0,1-5.16-9.29,49,49,0,0,1-1.44-12.36c0-5.47-.07-8.21-.12-13.68a34.1,34.1,0,0,1,.78-9.33q1.14-6.08,2.34-6.86c.88-2.2,3.18-3.82,6.9-4.84a31.2,31.2,0,0,1,12.54-1.08A21.14,21.14,0,0,0,1274,354.24Zm-7.08,27c-.08,1.39-.12,2.45-.12,3.17,0,1-.07,1.44-.12,2.39,0,2-.21,4.33-.24,6.59a6,6,0,0,0,2,4.44,6.82,6.82,0,0,0,4.32,2,11.33,11.33,0,0,0,4.8-.74c.48-.21,1.08-1.48,1.8-3.83,0-.24.07-.36.12-.59a81.23,81.23,0,0,0,.72-8.71,27.05,27.05,0,0,0-.48-5.19,10.59,10.59,0,0,0-2.34-5.1,6.27,6.27,0,0,0-4.38-2.1,15.79,15.79,0,0,0-1.92.11c-2,.51-3.16,1.32-3.48,2.42-.19.76-.29,1.14-.48,1.89S1267,379.81,1266.92,381.21Z"/><path class="cls-11" d="M1330,366.25s0-.06.06-.05a21.45,21.45,0,0,1,6.66-2.15,24.19,24.19,0,0,1,7.5,0c5.28.79,9.36,2.74,12.24,5.78q3.36,3.56,3.36,20.37c0,3.28-.07,8.28-.24,15-.15,5.72-.24,9.84-.24,12.32q0,4.08.24,9.16a79.55,79.55,0,0,1-13-1.39l-5.64-.84q-.24-3.64-.24-14v-6q0-5.88-.24-8.55c0-.3-.07-.45-.12-.74v-.84c-.16-2.26-.34-4-.54-5.36a9.28,9.28,0,0,0-1.56-3.82,5.31,5.31,0,0,0-3.9-2.23,4.06,4.06,0,0,0-3.48,1.2c-1,1-1.57,2.63-1.68,4.82-.06,1.17-.12,3-.12,5.5,0,2,.08,4.94.24,8.79.16,4,.24,7,.24,9,0,3.6.2,8.85-.48,9.53s-3.9.4-5.22.35a26.48,26.48,0,0,1-4.38-.48c-.71-.14-1.88-.34-3.48-.53q-2.76-.31-5.4-.36,0-14.4-.12-21.38-.26-15.62-.24-23.66,0-5.88.24-16.66a58.19,58.19,0,0,0,6,1.16,31.79,31.79,0,0,0,4,.23h2c1.76.06,3.12.15,4.08.28,1.92.24,3,.69,3.12,1.24a23.27,23.27,0,0,1,.24,4.23v.12C1330,366.31,1330,366.3,1330,366.25Z"/><path class="cls-11" d="M1415.36,398.3a80.31,80.31,0,0,1-12.24-4.26,6.71,6.71,0,0,0,.12-1.53,7.32,7.32,0,0,0-1.56-4.56,6.21,6.21,0,0,0-4.56-2.47,4.37,4.37,0,0,0-2.94,1.34,3.79,3.79,0,0,0-1.14,2.81,7.71,7.71,0,0,0,1.08,3.83,9,9,0,0,0,3.12,3.21l-.12,0a100.82,100.82,0,0,1,14.52,6.5,22.49,22.49,0,0,1,8.4,7.62,23,23,0,0,1,3.24,11.4,21.48,21.48,0,0,1-1.92,8.86c-1.52,3.25-4.82,5.44-8.94,6.27s-9,.43-14.22-.69c-8.47-1.8-15.7-4.79-20.94-9.65A23.46,23.46,0,0,1,1369.4,409a73.69,73.69,0,0,1,9.84,1.27c4.61,1,6.91,1.53,11.52,2.61a8,8,0,0,0,2.28,5.23,9.27,9.27,0,0,0,4.8,2.91,3.75,3.75,0,0,0,3.36-.74c1-.78,1.26-2.16,1.32-3.72a5.52,5.52,0,0,0-1.92-4.81,32,32,0,0,0-6.84-3.75l-1.8-.74a57.29,57.29,0,0,1-7.44-3.73,30.82,30.82,0,0,1-10.26-9.28,19,19,0,0,1-3.66-10.59,13.85,13.85,0,0,1,3.72-9.62,14.55,14.55,0,0,1,10.08-4.61c2.87-.22,7.08.26,12.6,1.49,5.84,1.29,11.59,3,15.84,5.38a21.33,21.33,0,0,1,8.46,9.86,32.13,32.13,0,0,1,2.7,13.25c-.77,0-1.15.05-1.92.1A47.51,47.51,0,0,1,1415.36,398.3Z"/></g></svg>