<svg id="Layer_1" data-name="Layer 1" xmlns="http://www.w3.org/2000/svg" viewBox="0 0 1920 1080"><defs><style>.cls-1{font-size:120px;fill:#f15a24;stroke:#000;stroke-miterlimit:10;font-family:LondrinaSolid-Black, Londrina Solid Black;font-weight:800;}</style></defs><title>ray of sunshine</title><text class="cls-1" transform="matrix(-0.24, -0.97, 0.97, -0.24, 492.14, 570.22)">W</text><text class="cls-1" transform="translate(478.47 514.33) rotate(-90.93)">a</text><text class="cls-1" transform="translate(479.65 453.04) rotate(-79.76)">l</text><text class="cls-1" transform="translate(485.35 423.4) rotate(-72.54)">l</text><text class="cls-1" transform="matrix(0.42, -0.91, 0.91, 0.42, 494.77, 394.69)"> </text><text class="cls-1" transform="matrix(0.57, -0.82, 0.82, 0.57, 505.81, 368.35)">o</text><text class="cls-1" transform="matrix(0.74, -0.68, 0.68, 0.74, 539.34, 321.78)">f</text><text class="cls-1" transform="translate(575.99 289.63) rotate(-33.55)"> </text><text class="cls-1" transform="translate(598.94 272.89) rotate(-22.64)">F</text><text class="cls-1" transform="matrix(0.98, -0.19, 0.19, 0.98, 650.97, 251.68)">r</text><text class="cls-1" transform="matrix(1, 0.02, -0.02, 1, 698.04, 242.41)">u</text><text class="cls-1" transform="matrix(0.97, 0.26, -0.26, 0.97, 755.35, 244.19)">s</text><text class="cls-1" transform="translate(810.75 259.87) rotate(27.81)">t</text><text class="cls-1" transform="matrix(0.77, 0.64, -0.64, 0.77, 855.08, 283.85)">r</text><text class="cls-1" transform="translate(892.23 314.05) rotate(52.27)">a</text><text class="cls-1" transform="translate(928.5 362.55) rotate(65.36)">t</text><text class="cls-1" transform="translate(948.59 409.46) rotate(75)">i</text><text class="cls-1" transform="translate(957.05 437.57) rotate(85.39)">o</text><text class="cls-1" transform="translate(961.28 494.61) rotate(98.83)">n</text><text class="cls-1" transform="translate(952.08 551.21) rotate(112.5)">s</text></svg>