<svg xmlns="http://www.w3.org/2000/svg" viewBox="0 0 1920 1080"><defs><style>.cls-1{font-size:150px;fill:#f15a24;stroke:#000;stroke-miterlimit:10;font-family:LondrinaSolid-Black, Londrina Solid Black;font-weight:800;}</style></defs><title>smile!</title><g id="smile"><text class="cls-1" transform="translate(464.66 307.41) rotate(105.1)">W</text><text class="cls-1" transform="translate(442.96 398.77) rotate(91.36)">a</text><text class="cls-1" transform="matrix(0.16, 0.99, -0.99, 0.16, 444.63, 492.38)">l</text><text class="cls-1" transform="matrix(0.28, 0.96, -0.96, 0.28, 453.68, 540.85)">l</text><text class="cls-1" transform="matrix(0.4, 0.92, -0.92, 0.4, 468.72, 587.71)"> </text><text class="cls-1" transform="translate(489.86 635.34) rotate(56.14)">o</text><text class="cls-1" transform="translate(543.69 709.7) rotate(43.61)">f</text><text class="cls-1" transform="translate(599.88 759.8) rotate(34.66)"> </text><text class="cls-1" transform="matrix(0.92, 0.4, -0.4, 0.92, 643.4, 789.8)">F</text><text class="cls-1" transform="translate(725.62 823.34) rotate(12.16)">r</text><text class="cls-1" transform="translate(803.57 838.54) rotate(-0.93)">u</text><text class="cls-1" transform="translate(897.21 834.74) rotate(-13.75)">s</text><text class="cls-1" transform="translate(986.19 809.52) rotate(-26.59)">t</text><text class="cls-1" transform="translate(1057.99 770.72) rotate(-38.24)">r</text><text class="cls-1" transform="matrix(0.63, -0.78, 0.78, 0.63, 1119.77, 719.64)">a</text><text class="cls-1" transform="translate(1177.74 642.36) rotate(-64.04)">t</text><text class="cls-1" transform="translate(1209.77 569.93) rotate(-73.66)">i</text><text class="cls-1" transform="translate(1224.39 518.67) rotate(-84.06)">o</text><text class="cls-1" transform="matrix(-0.13, -0.99, 0.99, -0.13, 1231.04, 426.09)">n</text><text class="cls-1" transform="matrix(-0.36, -0.93, 0.93, -0.36, 1215.9, 333.82)">s</text></g></svg>