<svg xmlns="http://www.w3.org/2000/svg" viewBox="0 0 1962 1080"><defs><style>.cls-1,.cls-10,.cls-2{fill:gray;}.cls-1,.cls-10,.cls-11,.cls-12,.cls-2,.cls-3{stroke:#000;stroke-miterlimit:10;}.cls-10,.cls-11,.cls-12,.cls-2,.cls-3{font-size:120px;}.cls-2{font-family:1942report, "1942 report";letter-spacing:-0.1em;}.cls-3{font-family:LondrinaSolid-Black, Londrina Solid Black;font-weight:800;letter-spacing:0.01em;}.cls-4{letter-spacing:-0.01em;}.cls-5{letter-spacing:0em;}.cls-6{letter-spacing:0em;}.cls-7{letter-spacing:0.01em;}.cls-8{letter-spacing:0.01em;}.cls-9{letter-spacing:0.01em;}.cls-10{font-family:Chewy-Regular, Chewy;letter-spacing:0.01em;}.cls-11,.cls-12{font-family:SecretBooze-Medium, Secret Booze ;font-weight:500;}.cls-11{letter-spacing:-0.1em;}.cls-12{letter-spacing:-0.05em;}</style></defs><title>walls of advice</title><g id="Layer_7" data-name="Layer 7"><path class="cls-1" d="M118.24,87.49q6.24.72,11,1.05l1.68.12a8.87,8.87,0,0,1,1.74.18q.9.19,1.5.27l2.76.38c.32,3.24.48,5.11.48,5.59s-.08,1.63-.24,3.68c0,.53-.07.79-.12,1.31,0,1.05-.07,1.57-.12,2.62a26.15,26.15,0,0,0,.24,2.79c-7.48-1-11.23-1.55-18.72-2.71q0,19.08-.12,23.38c1.2,1.7,3.36,3.16,6.48,4.34a44.43,44.43,0,0,0,9.72,2.47l2.52.23v1.08c0,.2.08.3.12.49v-.12a66.51,66.51,0,0,1,.72,9.1,19.86,19.86,0,0,1-1.08,6.81q-3.12-.18-6.36-.64a66.12,66.12,0,0,1-19.14-5.5c-5.48-2.61-9.72-6.51-10.86-10.64-1.06-3.88-1.2-8.83-1.44-13.15s-.36-9.25-.36-14.77v-6a22.64,22.64,0,0,1-2.82-.44c-.84-.19-1.58-.34-2.22-.46L90,98.29c.15-6.31.22-9.46.36-15.77,2.16.48,5,1,8.52,1.66C99,75,99,70.44,99,61.28c1.76.15,3.28.33,4.56.55s2.8.55,4.56,1l.84.26q2.88.72,4.44,1a30,30,0,0,0,4.68.38V86.27C118.17,86.76,118.2,87,118.24,87.49Z"/><path class="cls-1" d="M160.3,97.25s0-.06.06,0A22.64,22.64,0,0,1,167,94.87a25.64,25.64,0,0,1,7.5-.37c5.28.53,9.37,2.18,12.24,5q3.36,3.29,3.36,20.09c0,3.28-.06,8.29-.24,15-.15,5.74-.24,9.86-.24,12.34q0,4.08.24,9.14a67.28,67.28,0,0,1-13-.46l-5.64-.57q-.24-3.62-.24-13.94v-6c0-3.41-.07-5.12-.12-8.53a20.82,20.82,0,0,1-.12-2.42,23.44,23.44,0,0,0-.66-5.58,8.1,8.1,0,0,0-1-2.5,9.16,9.16,0,0,0-1.26-1.34,5.4,5.4,0,0,0-2.76-.89,5,5,0,0,0-3.84,1.14c-1.12.91-1.68,2.6-1.8,5-.06,1.17-.12,3-.12,5.51,0,2,.09,4.93.24,8.79.17,4,.24,7,.24,9,0,3.6.21,8.84-.48,9.55s-3.9.45-5.22.41a24.43,24.43,0,0,1-4.38-.47c-.7-.14-1.88-.35-3.48-.55-1.84-.23-3.64-.39-5.4-.46v-9.6c0-5.57-.07-8.36-.12-13.94-.12-11.56-.11-23.13-.12-34.69,0-10.15,0-20.3.24-30.45a50.79,50.79,0,0,0,6,1.25,30.08,30.08,0,0,0,4,.25h2c2.64.08,4,.12,4.2.14,1.92.22,2.94.7,3,1.42.2,2.21.24,6.67.24,13.23,0,4.36-.07,6.54-.12,10.9V97.3C160.32,97.31,160.34,97.29,160.3,97.25Z"/><path class="cls-1" d="M214.54,137a12.61,12.61,0,0,0,1.62,4,8.74,8.74,0,0,0,2.52,2.92,6.46,6.46,0,0,0,3.24,1.15,4.32,4.32,0,0,0,4.08-2.47q1.56-2.61,1.32-7.91a36.86,36.86,0,0,0,7.44.62c4.52.45,6.77.67,11.28,1.09a77.34,77.34,0,0,1-.78,10.89,18,18,0,0,1-2.94,8.28,11.64,11.64,0,0,1-6.9,4.31,37.46,37.46,0,0,1-10.5.72c-1.52-.09-3.65-.28-6.36-.61-1.28-.16-3.33-.18-5.64-.48a18.89,18.89,0,0,1-7.44-3.15,29.31,29.31,0,0,1-8.52-13.6,60.28,60.28,0,0,1-2.76-18.47c0-6.88.79-13.5,2.88-18.73,1.35-3.37,4.56-6,8.88-7.73a33.54,33.54,0,0,1,14.4-2,42.14,42.14,0,0,1,8.4,1.43c6,1.61,10.67,4.62,13.5,9.34a31.67,31.67,0,0,1,4.26,16.67c0,1,.37,4.67-.24,5.39-.4.47-5,.59-10.44.69s-10.52,0-15.24-.27l-6.48-.4v2.52A50.91,50.91,0,0,0,214.54,137Zm8.1-28q-4.2-.24-6,1.56a8.44,8.44,0,0,0-2.16,5.26,4.43,4.43,0,0,0-.12,1.07.83.83,0,0,0,.72.89,24.49,24.49,0,0,0,3.6.23l5.28.31,3.6.31,1.56.09c.24.09.4.1.48,0a.65.65,0,0,0,.12-.47v-.48a10.68,10.68,0,0,0-.9-4.49,6.27,6.27,0,0,0-2.46-2.89l-.48-.15A6.93,6.93,0,0,0,222.64,108.94Z"/><path class="cls-1" d="M293.2,110.74q4,25,4.44,25.58c3.06-12.2,5.63-24.22,7.8-36.6.72.07,1.76.11,3.12.1,2.55,0,3.82-.09,6.36-.16,2-.17,6.31-.32,7.2.53s1.64,8.7,2.76,17q1.92,14.13,3.24,18.79,1-3.25,2-8.67c.72-3.62,1.2-6,1.44-7.11q1.2-5.78,2.46-11.45a86,86,0,0,1,2.34-8.8c1.28,0,3.29-.16,6-.38,2.88-.24,5.2-.37,7-.42q1.44,0,6.12.17-2.76,7.77-4.92,16.35c-1.44,5.72-3.1,13.11-5,22.1-2.21,10.28-4,17.86-5.28,22.69a67,67,0,0,1-11.16.82l-6,.1c-1.36-.07-3.8-.07-7.32,0Q315,158,314.08,151c-.53-3.31-.79-5-1.32-8.27-.4,1.84-.84,4.53-1.32,8.05q-.12,1.08-.6,4.26c-.32,2.13-.53,5.32-1.08,5.83-.86.8-6.68.63-12.12.62q-7.8,0-13.8-.22c-3.56-20.86-7.46-41.68-13-62.13a36.45,36.45,0,0,0,7,.73l3.72-.07c.8-.07,2-.09,3.6-.08a34.32,34.32,0,0,1,4.8.41h1.56Q292.24,103.53,293.2,110.74Z"/><path class="cls-1" d="M407.74,98.94a18.07,18.07,0,0,1,.18,2.63c0,2-.12,5.21-.12,9.36,0,5.61,0,9.8.12,12.6v7.2c.05,2.88.07,4.31.12,7.19q0,7.08-.36,14.54v1.2a7.34,7.34,0,0,1-.48,3,3.44,3.44,0,0,1-2.52,1.52c-6.09.33-9.14.49-15.24.78-1.84-.47-2.76-1.51-2.76-3.11V155a29.27,29.27,0,0,1-6.6,3.36,23.42,23.42,0,0,1-7,1.43A13,13,0,0,1,362.38,155a32.13,32.13,0,0,1-6.54-12.56,53.47,53.47,0,0,1-2.16-14.75,35.28,35.28,0,0,1,2.88-14.43,26.32,26.32,0,0,1,7.92-10.41,19.62,19.62,0,0,1,11.16-4.27,36.64,36.64,0,0,1,7,.29q3.24.47,4.08,1.26a6.6,6.6,0,0,0-.24-1.55,1.72,1.72,0,0,1,.12-1.45,3.34,3.34,0,0,1,1.68-.31c1.44-.07,3.34-.06,5.7,0s3.86.14,4.5.19c3,0,4.54,0,7.56-.05l1.56-.08A18.7,18.7,0,0,0,407.74,98.94Zm-33.3,39.23a7.09,7.09,0,0,0,6.48,3.27,5,5,0,0,0,3.84-1.61,7.62,7.62,0,0,0,1.5-3.91,63.77,63.77,0,0,0,.3-7.22v-3.12q0-5.14-.18-7a3.25,3.25,0,0,0-1.08-2.47,5.5,5.5,0,0,0-3.18-.51,9.5,9.5,0,0,0-6.24,2.37,10.68,10.68,0,0,0-3.12,5.22,25,25,0,0,0-.72,6.27A14.88,14.88,0,0,0,374.44,138.17Z"/><path class="cls-1" d="M434.32,89.52V93c0,4.71-.07,7.06-.12,11.77q-.24,17.53-.24,26.17,0,16.2.48,24a3.9,3.9,0,0,1-2.46,1.3,34.42,34.42,0,0,1-5.1.63c-2.48.16-4.21.21-5.16.2a23.63,23.63,0,0,0-7.92,1.19q.84-11.56.84-21.41,0-7.2-.48-21.57-.5-15.56-.48-23.49A227.58,227.58,0,0,1,414.76,69c7.92-.32,11.88-.5,19.8-.88C434.47,76.69,434.42,81,434.32,89.52Z"/><path class="cls-1" d="M460.48,87.69v3.48c-.05,4.7-.07,7.06-.12,11.77q-.24,17.53-.24,26.17,0,16.2.48,24a4,4,0,0,1-2.46,1.32,34.9,34.9,0,0,1-5.1.67c-2.48.18-4.21.24-5.16.25a23.78,23.78,0,0,0-7.92,1.26q.84-11.57.84-21.41,0-7.2-.48-21.57-.49-15.55-.48-23.49,0-12,1.08-22.75c7.92-.4,11.88-.61,19.8-1C460.62,74.86,460.58,79.13,460.48,87.69Z"/><path class="cls-1" d="M509.56,110a60.61,60.61,0,0,1-12.24-.28,7.32,7.32,0,0,0,.12-1.57,5.48,5.48,0,0,0-1.56-4.07,4.74,4.74,0,0,0-4.56-1.07,6.32,6.32,0,0,0-2.94,2.22,5.09,5.09,0,0,0-1.14,3.16,6.11,6.11,0,0,0,1.08,3.51,5.8,5.8,0,0,0,3.12,2.26h-.12a88.54,88.54,0,0,1,14.52,1.91c3.68.89,6.73,2.52,8.4,4.8a17.48,17.48,0,0,1,3.24,10.28,26.32,26.32,0,0,1-1.92,9.53,18.9,18.9,0,0,1-8.94,9.28,37.7,37.7,0,0,1-14.22,3.83c-8.52.8-15.7-.17-20.94-3.6s-7.86-8.73-7.86-15.85a82.64,82.64,0,0,1,9.84-1.35c4.61-.26,6.91-.39,11.52-.67a5.83,5.83,0,0,0,2.28,4.56,6.66,6.66,0,0,0,4.8,1.46,4.92,4.92,0,0,0,3.36-1.77,6.41,6.41,0,0,0,1.32-4.13c.07-1.95-.4-3.51-1.92-4.22a23.91,23.91,0,0,0-6.84-1.66l-1.8-.22a40.53,40.53,0,0,1-7.44-1.56,20.56,20.56,0,0,1-10.26-6.46,14.92,14.92,0,0,1-3.66-9.63,17.7,17.7,0,0,1,3.72-10.6,20.93,20.93,0,0,1,10.08-7.38,52.47,52.47,0,0,1,12.6-2.22c5.84-.48,11.59-.66,15.84.36a13.54,13.54,0,0,1,8.46,7,26.05,26.05,0,0,1,2.7,12.31l-1.92.76A42.68,42.68,0,0,1,509.56,110Z"/><path class="cls-1" d="M572.92,82c.45-.07,1.48-.25,3-.39a12,12,0,0,1,2-.07,26.48,26.48,0,0,1,8,.88A16.73,16.73,0,0,1,592,85.51a13.38,13.38,0,0,1,4.56,8.22,74.78,74.78,0,0,1,1.08,13.58v4q-.36,10.23-1.2,17.27c-.56,4.69-1.64,7.92-2.88,9.63a15.32,15.32,0,0,1-6.9,5.32,39.15,39.15,0,0,1-10.5,2.29c-1.52.15-3.65.27-6.36.35-2.56.09-4.52.18-5.88.31a20.31,20.31,0,0,1-11.16-4.38,16.52,16.52,0,0,1-5.16-8.59,46.76,46.76,0,0,1-1.44-12.17c0-5.46-.07-8.2-.12-13.67a35.13,35.13,0,0,1,.78-9.43c.76-4.14,1.54-6.54,2.34-7.17q1.32-3.48,6.9-5.79c3.72-1.54,8.35-3,12.54-2.95A20.5,20.5,0,0,0,572.92,82Zm-7.08,28.08c-.08,1.41-.12,2.47-.12,3.19-.05,1-.07,1.45-.12,2.41,0,2-.22,4.34-.24,6.62a5.16,5.16,0,0,0,2,4.14,5.94,5.94,0,0,0,4.32,1.28,12.45,12.45,0,0,0,4.8-1.53c.48-.28,1.08-1.66,1.8-4.13,0-.24.07-.36.12-.61a84.12,84.12,0,0,0,.72-8.82,25.92,25.92,0,0,0-.48-5.12,8.62,8.62,0,0,0-2.34-4.7,5.39,5.39,0,0,0-4.38-1.4,15.41,15.41,0,0,0-1.92.42c-2,.83-3.16,1.81-3.48,3-.19.79-.29,1.18-.48,2S565.92,108.68,565.84,110.08Z"/><path class="cls-1" d="M622.48,139.57a39.56,39.56,0,0,0-4,.6l-.6.18q-2.64.48-4.56.66c-1.2.11-2.68.17-4.44.17q-.6-3.54-.6-16.62c0-4,.07-6,.12-10v-8.4c0-2.16.07-3.24.12-5.41V98.85c-4,.37-6.84.68-8.52.91-.14-6.32-.22-9.48-.36-15.8l4-.37c.64-.06,1.34-.14,2.1-.26a21.45,21.45,0,0,1,2.58-.18,28.4,28.4,0,0,1,3.06-13.84,21.47,21.47,0,0,1,10.5-10.57c4.57-2.09,10.8-3.39,18.24-4.06q3.36-.3,6.48-.35a20.38,20.38,0,0,1,1.08,6.87,65.62,65.62,0,0,1-.72,9.06c-.05.58-.07.87-.12,1.45a23.1,23.1,0,0,0-2.76.13,83,83,0,0,0-10.8,1.94l-1.8.4h.12a4.1,4.1,0,0,1-1.32.36h.12q-2.4.7-2.4,4.54a25.08,25.08,0,0,0,.24,2.62L646.84,80a26.09,26.09,0,0,0-.24,3.62v2.52a78.29,78.29,0,0,1-.48,8.57c0,.24-.07.36-.12.61v1.08l-6.12.19-1,0q-6,.06-11,.4v41.88l-.72.67A37.81,37.81,0,0,0,622.48,139.57Z"/><path class="cls-1" d="M716.44,91.7a63.29,63.29,0,0,1-12.24-.37,7.32,7.32,0,0,0,.12-1.57,5.52,5.52,0,0,0-1.56-4.08,4.77,4.77,0,0,0-4.56-1.08,6.32,6.32,0,0,0-2.94,2.22A5,5,0,0,0,694.12,90a6.17,6.17,0,0,0,1.08,3.52,5.85,5.85,0,0,0,3.12,2.26h-.12a86.45,86.45,0,0,1,14.52,2c3.68.92,6.72,2.59,8.4,4.89A17.66,17.66,0,0,1,724.36,113a26.06,26.06,0,0,1-1.92,9.5,18.65,18.65,0,0,1-8.94,9.19,38.22,38.22,0,0,1-14.22,3.76c-8.52.77-15.7-.16-20.94-3.56s-7.86-8.65-7.86-15.77a80.66,80.66,0,0,1,9.84-1.43c4.61-.3,6.91-.44,11.52-.72a5.79,5.79,0,0,0,2.28,4.55,6.67,6.67,0,0,0,4.8,1.48,5,5,0,0,0,3.36-1.77,6.41,6.41,0,0,0,1.32-4.13c.06-1.94-.4-3.51-1.92-4.22a24.15,24.15,0,0,0-6.84-1.68l-1.8-.21a41.55,41.55,0,0,1-7.44-1.55A20.46,20.46,0,0,1,675.34,100a14.76,14.76,0,0,1-3.66-9.59,17.86,17.86,0,0,1,3.72-10.64,21.06,21.06,0,0,1,10.08-7.45,51.41,51.41,0,0,1,12.6-2.23c5.84-.47,11.59-.62,15.84.44a13.73,13.73,0,0,1,8.46,7.11A26.21,26.21,0,0,1,725.08,90l-1.92.74A44.35,44.35,0,0,1,716.44,91.7Z"/><path class="cls-1" d="M747.34,108.53a11.18,11.18,0,0,0,1.62,3.79,7.15,7.15,0,0,0,2.52,2.6,5.87,5.87,0,0,0,3.24.75,5,5,0,0,0,4.08-3q1.56-2.79,1.32-8.06a38.42,38.42,0,0,0,7.44-.2c4.51,0,6.77,0,11.28,0a79,79,0,0,1-.78,11,19.75,19.75,0,0,1-2.94,8.56,13.53,13.53,0,0,1-6.9,5,41,41,0,0,1-10.5,1.89c-1.52.1-3.65.15-6.36.16-1.28,0-3.32.25-5.64.25a17,17,0,0,1-7.44-2.13q-5.76-4.17-8.52-12.36a56.28,56.28,0,0,1-2.76-18c0-6.88.79-13.63,2.88-19.17,1.36-3.61,4.56-6.73,8.88-9a35.06,35.06,0,0,1,14.4-4,38.76,38.76,0,0,1,8.4.44c6,.92,10.66,3.47,13.5,7.91s4.26,9.87,4.26,16.27c0,1,.41,4.58-.24,5.41-.43.55-5,1.05-10.44,1.72s-10.52,1.17-15.24,1.47l-6.48.42v2.52A49.28,49.28,0,0,0,747.34,108.53Zm8.1-29q-4.2.27-6,2.31a9.64,9.64,0,0,0-2.16,5.54,4.61,4.61,0,0,0-.12,1.09.71.71,0,0,0,.72.79,25,25,0,0,0,3.6-.23l5.28-.34,3.6-.1,1.56-.1q.36.11.48,0a.69.69,0,0,0,.12-.48v-.48a10,10,0,0,0-.9-4.39,5.32,5.32,0,0,0-2.46-2.61l-.48-.09A6.2,6.2,0,0,0,755.44,79.5Z"/><path class="cls-1" d="M832.06,114.67c-.52,3.29-1.3,5.56-2.34,6.79a13.1,13.1,0,0,1-6.9,4.9,39,39,0,0,1-10.5,1.69c-1.52.06-3.65.07-6.36,0s-4.52,0-5.88,0a20.62,20.62,0,0,1-11.16-4.88,17.28,17.28,0,0,1-5.1-8.74,48.15,48.15,0,0,1-1.38-12V98.7c0-4.72-.25-8.18-.36-10.06a45.41,45.41,0,0,1,.72-8.92A28.1,28.1,0,0,1,784.24,74l.72-1.6c-.08.09-.12.09-.12,0q1.68-3.69,7.32-5.83c3.76-1.42,8.42-2.67,12.6-2.43a20.31,20.31,0,0,0,4.32-.06c.45,0,1.48-.18,3-.24a11.72,11.72,0,0,1,2,0c6.32.32,11,1.89,14.16,4.67a11.4,11.4,0,0,1,4,6.78,67.13,67.13,0,0,1,1.26,12.27V89c.05.71.07,1.07.12,1.79a35.57,35.57,0,0,1-6.24.91c-1.92.06-5.2-.12-9.84-.51L815,90.87a10.87,10.87,0,0,0-2.4-5.48A5.47,5.47,0,0,0,808,83.47a10,10,0,0,0-1.92.32h.12a7.07,7.07,0,0,0-2.64,1.79,5.82,5.82,0,0,0-1.32,2.94,58.39,58.39,0,0,0-.48,8.78c0,1.63-.07,2.45-.12,4.09q-.12,1.32-.12,3.24a4.61,4.61,0,0,0,1.86,4.06,7.34,7.34,0,0,0,4.62,1.19,9.4,9.4,0,0,0,4.44-1.38,9.43,9.43,0,0,0,1.26-2.75,28.71,28.71,0,0,0,1-4.06,38.55,38.55,0,0,0,7.44,0l2.64-.09,2.64-.2a20.86,20.86,0,0,1,4.56.22l1.44,0Q832.84,109.73,832.06,114.67Z"/><path class="cls-1" d="M859.66,66.63A12,12,0,0,1,861.4,66a44.18,44.18,0,0,1,13.08-1.67q5.88,0,5.88.59c-.05,2.5-.07,3.75-.12,6.24,0,6.48.07,9.72.12,16.2l-3.24-1.07-7-1.65a39.54,39.54,0,0,0-5.16-.32,8,8,0,0,0-5.64,1.86c-1.28,1.22-1.89,3.32-1.8,6.27.32,10.68,2.81,29.06.48,32.15-.52.68-3.8,1-5.16,1.1a33.92,33.92,0,0,1-5.16.16c-.78,0-2.08-.08-3.84,0-1.92,0-3.76.16-5.52.37q0-14.4-.12-21.36c-.17-10.38-.24-18.27-.24-23.63q0-5.88.24-16.69a52.2,52.2,0,0,0,6,.34,53.37,53.37,0,0,0,6.12-.48,45.75,45.75,0,0,1,5.64-.46q2,0,2,.33c.05,1.15.07,1.73.12,2.88v.12A6.66,6.66,0,0,0,859.66,66.63Z"/><path class="cls-1" d="M902.14,103.84a11.93,11.93,0,0,0,1.62,3.93,8,8,0,0,0,2.52,2.8,6.18,6.18,0,0,0,3.24,1A4.53,4.53,0,0,0,913.6,109q1.56-2.66,1.32-8a38.78,38.78,0,0,0,7.44.44c4.51.37,6.77.56,11.28,1a77.34,77.34,0,0,1-.78,10.89,18,18,0,0,1-2.94,8.29A12,12,0,0,1,923,126a39.87,39.87,0,0,1-10.5,1c-1.52,0-3.65-.15-6.36-.36-1.28-.1-3.33,0-5.64-.21a18.29,18.29,0,0,1-7.44-2.72,26.83,26.83,0,0,1-8.52-13,58.22,58.22,0,0,1-2.76-18.25c0-6.88.79-13.57,2.88-19,1.35-3.5,4.56-6.39,8.88-8.35A32.78,32.78,0,0,1,908,62.36a39.28,39.28,0,0,1,8.4,1.14c6,1.44,10.66,4.4,13.5,9.09a31.61,31.61,0,0,1,4.26,16.66c0,1,.37,4.67-.24,5.39-.41.47-5,.59-10.44.79s-10.52.26-15.24.17c-2.59,0-3.89-.07-6.48-.1V98A49.89,49.89,0,0,0,902.14,103.84Zm8.1-28.36q-4.2-.08-6,1.81a8.92,8.92,0,0,0-2.16,5.37,4.46,4.46,0,0,0-.12,1.08.78.78,0,0,0,.72.85,24,24,0,0,0,3.6.06c2.11,0,3.17,0,5.28.1l3.6.2,1.56,0c.24.08.4.09.48,0a.69.69,0,0,0,.12-.48V84a10.48,10.48,0,0,0-.9-4.46A6,6,0,0,0,914,76.76l-.48-.13A6.53,6.53,0,0,0,910.24,75.48Z"/><path class="cls-1" d="M963.16,67q6.24.14,11,.11h1.68a7.9,7.9,0,0,1,1.74.07c.6.08,1.1.14,1.5.17l2.76.21q.48,4.83.48,5.55c0,.4-.08,1.64-.24,3.7,0,.53-.08.79-.12,1.32,0,1-.07,1.57-.12,2.63a25.68,25.68,0,0,0,.24,2.77c-7.49-.57-11.24-.83-18.72-1.28q0,19.08-.12,23.39c1.2,1.6,3.36,2.85,6.48,3.77a45.83,45.83,0,0,0,9.72,1.77l2.52.07v1.08c0,.19.07.29.12.48v-.12a65.62,65.62,0,0,1,.72,9.06,20.48,20.48,0,0,1-1.08,6.88c-2.09,0-4.2-.08-6.36-.23a69.74,69.74,0,0,1-19.14-3.78c-5.48-2-9.75-5.46-10.86-9.37s-1.2-8.68-1.44-13-.36-9.19-.36-14.71v-6a23,23,0,0,1-2.82-.07q-1.26-.11-2.22-.15l-3.6-.14c.14-6.33.21-9.5.36-15.83q3.24.24,8.52.48c0-9.17.07-13.75.12-22.92,1.75-.08,3.28-.09,4.56,0s2.79.21,4.56.47l.84.16c1.92.26,3.39.43,4.44.48A32,32,0,0,0,963,44V65.82C963.08,66.3,963.11,66.54,963.16,67Z"/><path class="cls-1" d="M1004.26,109.3a12.92,12.92,0,0,0,1.62,4.06,9,9,0,0,0,2.52,3,6.53,6.53,0,0,0,3.24,1.29,4.09,4.09,0,0,0,4.08-2.27c1-1.68,1.47-4.3,1.32-7.83a40.63,40.63,0,0,0,7.44,1.07c4.51.76,6.76,1.15,11.28,2a75.83,75.83,0,0,1-.78,10.82c-.53,3.62-1.55,6.3-3,8a10.74,10.74,0,0,1-6.9,3.79,39.52,39.52,0,0,1-10.5.1q-2.28-.24-6.36-.9c-1.27-.2-3.33-.3-5.64-.67a19.81,19.81,0,0,1-7.44-3.32,29.83,29.83,0,0,1-8.51-13.68,60.17,60.17,0,0,1-2.76-18.46c0-6.88.79-13.51,2.88-18.73,1.34-3.36,4.56-6,8.88-7.65a31.71,31.71,0,0,1,14.4-1.63,41.38,41.38,0,0,1,8.4,1.85c6,2,10.66,5.32,13.5,10.27a33.61,33.61,0,0,1,4.26,17c0,1,.32,4.76-.24,5.37-.39.41-5,.15-10.44-.13s-10.52-.64-15.24-1.12c-2.6-.27-3.89-.39-6.48-.64v2.52A48.9,48.9,0,0,0,1004.26,109.3Zm8.1-27.69c-2.81-.29-4.8.15-6,1.31a8.16,8.16,0,0,0-2.16,5.19,4.38,4.38,0,0,0-.12,1.07.87.87,0,0,0,.72.91,25,25,0,0,0,3.6.35l5.28.55,3.6.5,1.56.17c.24.11.39.13.48,0a.62.62,0,0,0,.12-.46v-.48a11,11,0,0,0-.9-4.54,6.79,6.79,0,0,0-2.46-3l-.48-.17A7.09,7.09,0,0,0,1012.36,81.61Z"/><path class="cls-1" d="M1083.51,101a73.1,73.1,0,0,1-12.24-3.39,7.67,7.67,0,0,0-1.44-6,5.78,5.78,0,0,0-4.56-2.16,4.69,4.69,0,0,0-2.94,1.52,4.07,4.07,0,0,0-1.14,2.89,7.49,7.49,0,0,0,1.08,3.77,8.2,8.2,0,0,0,3.12,3l-.12,0a95.79,95.79,0,0,1,14.52,5.5c3.68,1.84,6.7,4.23,8.4,7a21.64,21.64,0,0,1,3.24,11.15,22.51,22.51,0,0,1-1.92,9c-1.52,3.39-4.82,5.8-8.94,6.93s-9,1.06-14.22.29c-8.47-1.24-15.7-3.8-20.94-8.35a22.1,22.1,0,0,1-7.86-17.48,72.6,72.6,0,0,1,9.84.71c4.61.73,6.92,1.11,11.52,1.9a7.48,7.48,0,0,0,2.28,5.08,8.5,8.5,0,0,0,4.8,2.6,4,4,0,0,0,3.36-1,6.45,6.45,0,0,0-.6-8.5,30,30,0,0,0-6.84-3.29l-1.8-.63a53.38,53.38,0,0,1-7.44-3.26,28.15,28.15,0,0,1-10.26-8.68,18,18,0,0,1-3.66-10.38,14.62,14.62,0,0,1,3.72-9.83,15.64,15.64,0,0,1,10.08-5.21c2.88-.39,7.08-.17,12.6.69,5.84.91,11.6,2.18,15.84,4.29a19.27,19.27,0,0,1,8.46,9.25,30.65,30.65,0,0,1,2.7,13l-1.92.25A45.26,45.26,0,0,1,1083.51,101Z"/><text class="cls-2" transform="translate(89.52 323.48)">the walls of secretes.</text><text class="cls-3" transform="translate(82.52 508.48)">the<tspan class="cls-4" x="157.8" y="0"> </tspan><tspan class="cls-5" x="181.2" y="0">w</tspan><tspan x="262.68" y="0">alls o</tspan><tspan class="cls-6" x="509.64" y="0">f</tspan><tspan class="cls-7" x="555" y="0" xml:space="preserve"> secr</tspan><tspan class="cls-8" x="790.67" y="0">e</tspan><tspan class="cls-9" x="844.91" y="0">tes</tspan></text><text class="cls-10" transform="translate(73.53 665.48)">the walls of secretes</text><text class="cls-11" transform="translate(82.53 823.48)">the walls of secretes</text><text class="cls-12" transform="translate(89.53 948.48)">the walls of secretes</text><text class="cls-12" transform="translate(89.53 1060.48)">the walls of secretes</text></g></svg>